<svg id="Layer_1" data-name="Layer 1" xmlns="http://www.w3.org/2000/svg" viewBox="0 0 17 17"><path d="M8.5,10.56c-.17,0-.75.12-.75.35a2.27,2.27,0,0,0,.75.76,2.27,2.27,0,0,0,.75-.76C9.25,10.69,8.67,10.56,8.5,10.56Z"/><path d="M8.5.5a8,8,0,1,0,8,8A8,8,0,0,0,8.5.5Zm-6,8a6,6,0,0,1,9.71-4.75L10.33,5.6A6.47,6.47,0,0,0,8.5,5.33,6.37,6.37,0,0,0,4.08,7.1a.15.15,0,0,0,0,.1A2.59,2.59,0,0,0,4.8,8a.16.16,0,0,0,.1,0A5.12,5.12,0,0,1,9.36,6.58l-.53.53c-.11,0-.22,0-.33,0A4.62,4.62,0,0,0,5.32,8.34a.15.15,0,0,0,0,.1A2.59,2.59,0,0,0,6,9.2a5.33,5.33,0,0,1,1.52-.81l-3.8,3.8A6,6,0,0,1,2.48,8.5Zm6,6a6,6,0,0,1-3.69-1.27L8,10.07A1.6,1.6,0,0,1,8.5,10a2.48,2.48,0,0,1,1.23.45,2.57,2.57,0,0,0,.77-.76.15.15,0,0,0,0-.1,2.73,2.73,0,0,0-1.29-.66l.47-.47a4.62,4.62,0,0,1,1.24.73.2.2,0,0,0,.1,0,2.59,2.59,0,0,0,.76-.76.15.15,0,0,0,0-.1,4.14,4.14,0,0,0-1.17-.79l.42-.42a6.33,6.33,0,0,1,1.16.8.16.16,0,0,0,.1,0A2.59,2.59,0,0,0,13,7.21a.15.15,0,0,0,0-.1,5.8,5.8,0,0,0-1.11-.85l1.44-1.44A6,6,0,0,1,8.5,14.52Z"/></svg>