<svg id="Layer_1" data-name="Layer 1" xmlns="http://www.w3.org/2000/svg" viewBox="0 0 17 17"><path d="M13,6.19,12.17,7A12.39,12.39,0,0,1,15,8.85a10.93,10.93,0,0,1-3.61,2.4,3.69,3.69,0,0,0,.4-3.93L6.54,12.61a8.67,8.67,0,0,0,2,.25c4.77,0,7.91-4.05,7.91-4.05A13.14,13.14,0,0,0,13,6.19Z"/><path d="M11.92,5.72l1.26-1.26a.39.39,0,0,0,0-.56l-.56-.56a.39.39,0,0,0-.56,0L10.19,5.23a8.65,8.65,0,0,0-1.56-.15H8.44C3.79,5.19.5,8.8.5,8.8a13.06,13.06,0,0,0,3.38,2.74l-1,1a.39.39,0,0,0,0,.56l.56.56a.39.39,0,0,0,.56,0l1.4-1.4h0l6.53-6.53ZM4.78,9a3.67,3.67,0,0,0,.27,1.39l-.4.4A12.41,12.41,0,0,1,2,8.84,12.32,12.32,0,0,1,5.55,6.72,3.7,3.7,0,0,0,4.78,9Z"/></svg>