<svg id="Layer_1" data-name="Layer 1" xmlns="http://www.w3.org/2000/svg" viewBox="0 0 17 17"><title>accomm</title><path d="M11.39,5.21H1.63a.54.54,0,0,0-.54.54v7.59a.54.54,0,0,0,.54.54h4a2.36,2.36,0,0,1-.13,1.18,7.21,7.21,0,0,0-1.27.11c-.66.17-.56.69-.56.69H9.38s.1-.52-.56-.69a6.68,6.68,0,0,0-1.21-.11,1.89,1.89,0,0,1-.13-1.18h3.91a.54.54,0,0,0,.54-.54V5.75A.54.54,0,0,0,11.39,5.21ZM11,11.58a.52.52,0,0,1-.52.53H2.63a.52.52,0,0,1-.51-.53V6.77a.52.52,0,0,1,.51-.53h7.85a.52.52,0,0,1,.52.53Z"/><path d="M14,3.08V1.28a.15.15,0,0,0-.15-.14H13a.14.14,0,0,0-.14.14v1.8H11a.14.14,0,0,0-.14.14v.86a.14.14,0,0,0,.14.14h1.8V6a.14.14,0,0,0,.14.14h.85A.15.15,0,0,0,14,6V4.22h1.8a.15.15,0,0,0,.14-.14V3.22a.15.15,0,0,0-.14-.14Z"/></svg>