<svg id="Layer_1" data-name="Layer 1" xmlns="http://www.w3.org/2000/svg" viewBox="0 0 17 17"><title>1</title><path d="M6.3,7.49l-.13,0A.14.14,0,0,1,6,7.4a1.21,1.21,0,0,1,0-.34V5.11a2.22,2.22,0,0,0-.19-1,1.46,1.46,0,0,0-1.39-.68,2,2,0,0,0-1.32.4,1.18,1.18,0,0,0-.46.81.6.6,0,0,0,.15.4.53.53,0,0,0,.43.19.62.62,0,0,0,.31-.08.54.54,0,0,0,.24-.49,1.35,1.35,0,0,0,0-.2c0-.08,0-.14,0-.17A.29.29,0,0,1,3.87,4a.84.84,0,0,1,.41-.11.58.58,0,0,1,.57.26,1.5,1.5,0,0,1,.09.64V5.1a9.86,9.86,0,0,0-1.73.78h0a1.5,1.5,0,0,0-.76,1.28A1.1,1.1,0,0,0,2.79,8a1.13,1.13,0,0,0,.81.33A1.77,1.77,0,0,0,4.51,8,3.35,3.35,0,0,0,5,7.7,1,1,0,0,0,5.14,8a.64.64,0,0,0,.58.27,1.08,1.08,0,0,0,.62-.21,1.59,1.59,0,0,0,.36-.33l0,0V7.19l-.2.14A1.6,1.6,0,0,1,6.3,7.49ZM3.56,6.82c0-.32.21-.61.64-.87a4,4,0,0,1,.74-.34V7a.4.4,0,0,1-.24.35.8.8,0,0,1-.9,0A.62.62,0,0,1,3.56,6.82Z"/><path d="M9.12,3.43A1.71,1.71,0,0,0,8,3.82,1.29,1.29,0,0,0,7.84,4V1.4a.3.3,0,0,0,0-.1l0-.09H7.7a2.35,2.35,0,0,0-.52.17,8.68,8.68,0,0,1-1,.27l-.09,0v.4l.34,0c.2,0,.25,0,.26.06a.74.74,0,0,1,0,.34V7.58c0,.2.19.37.6.54a2.89,2.89,0,0,0,1.11.22,2.34,2.34,0,0,0,1.82-.77A2.69,2.69,0,0,0,11,5.72a2.48,2.48,0,0,0-.54-1.65A1.65,1.65,0,0,0,9.12,3.43Zm-.42.88a.89.89,0,0,1,.87.55,2.77,2.77,0,0,1,.3,1.28,2.17,2.17,0,0,1-.31,1.17,1,1,0,0,1-.9.45,1.84,1.84,0,0,1-.55-.11h0c-.26-.08-.28-.22-.29-.24V4.93a.51.51,0,0,1,.27-.43A1.18,1.18,0,0,1,8.7,4.31Z"/><path d="M14.83,6.39l-.07.1a3.19,3.19,0,0,1-.48.58,1.26,1.26,0,0,1-.82.3,1.23,1.23,0,0,1-1-.53A2.13,2.13,0,0,1,12,5.59a1.89,1.89,0,0,1,.35-1.21,1,1,0,0,1,.84-.44.67.67,0,0,1,.35.08.51.51,0,0,1,.17.29l.06.24A.78.78,0,0,0,14,5a.61.61,0,0,0,.83,0A.64.64,0,0,0,15,4.54a1,1,0,0,0-.5-.79h0a1.9,1.9,0,0,0-1.12-.33,2.17,2.17,0,0,0-1.7.76A2.71,2.71,0,0,0,11,6a2.36,2.36,0,0,0,.62,1.71,1.91,1.91,0,0,0,2.89-.06,3.79,3.79,0,0,0,.6-1l.05-.1Z"/><path d="M8.2,9.22A.32.32,0,0,0,8,9.31L6.49,10.79H4.82a.14.14,0,0,0-.13.14v2.63a.13.13,0,0,0,.13.14H6.49L8,15.18a.32.32,0,0,0,.23.09A.31.31,0,0,0,8.51,15V9.54A.31.31,0,0,0,8.2,9.22Z"/><path d="M9.59,13.42a.25.25,0,0,1-.12,0,.32.32,0,0,1-.32-.32c0-.37.58-.27.58-.87s-.58-.5-.58-.88a.32.32,0,0,1,.32-.32l.12,0a1.27,1.27,0,0,1,0,2.34Z"/><path d="M10.1,14.59a.31.31,0,0,1-.13,0,.32.32,0,0,1-.32-.32.34.34,0,0,1,.19-.3,1.76,1.76,0,0,0,.38-.21,1.91,1.91,0,0,0,0-3.08,2.36,2.36,0,0,0-.38-.22.33.33,0,0,1-.19-.29A.32.32,0,0,1,10,9.88l.13,0a2.56,2.56,0,0,1,0,4.69Z"/><path d="M10.6,15.76a.28.28,0,0,1-.13,0,.33.33,0,0,1-.32-.32.3.3,0,0,1,.2-.29l.22-.11a3.45,3.45,0,0,0,.41-.25,3.19,3.19,0,0,0,0-5.14,3.54,3.54,0,0,0-.41-.26l-.22-.1a.32.32,0,0,1,.12-.61l.13,0a3.82,3.82,0,0,1,0,7Z"/></svg>