<svg id="Layer_1" data-name="Layer 1" xmlns="http://www.w3.org/2000/svg" viewBox="0 0 17 17"><path d="M14.58,12.08a7.08,7.08,0,0,0,0-7.16l1.74-1.74a.44.44,0,0,0,0-.62L14.45.68a.44.44,0,0,0-.62,0L12.08,2.42a7.08,7.08,0,0,0-7.16,0L3.18.68a.44.44,0,0,0-.62,0L.68,2.55a.44.44,0,0,0,0,.62L2.42,4.92a7.08,7.08,0,0,0,0,7.16L.68,13.82a.44.44,0,0,0,0,.62l1.87,1.87a.44.44,0,0,0,.62,0l1.74-1.74a7.08,7.08,0,0,0,7.16,0l1.74,1.74a.44.44,0,0,0,.62,0l1.87-1.87a.44.44,0,0,0,0-.62Zm-1.3-1.3L11,8.5l2.28-2.28A5.31,5.31,0,0,1,13.28,10.78Zm-2.5-7.06L8.5,6,6.22,3.72A5.31,5.31,0,0,1,10.78,3.72ZM3.72,6.22,6,8.5,3.72,10.78A5.31,5.31,0,0,1,3.72,6.22Zm2.5,7.06L8.5,11l2.28,2.28A5.31,5.31,0,0,1,6.22,13.28Z"/></svg>