<svg id="Layer_1" data-name="Layer 1" xmlns="http://www.w3.org/2000/svg" viewBox="0 0 17 17"><path d="M15.83,8h-3.3a2.45,2.45,0,0,1-.16-.86,2.2,2.2,0,0,1,.41-1.39,1.18,1.18,0,0,1,1-.5.77.77,0,0,1,.41.09.55.55,0,0,1,.2.34l.07.27a.91.91,0,0,0,.26.46.63.63,0,0,0,.43.17.61.61,0,0,0,.49-.2.89.89,0,0,0,0-1A1.57,1.57,0,0,0,15.21,5a2.17,2.17,0,0,0-1.28-.38A2.49,2.49,0,0,0,12,5.5a3.05,3.05,0,0,0-.76,2.08,3.67,3.67,0,0,0,0,.39h-.3A3.39,3.39,0,0,0,11,7.26a2.85,2.85,0,0,0-.61-1.88,1.9,1.9,0,0,0-1.5-.74,2,2,0,0,0-1.27.45l-.21.2v-3a.35.35,0,0,0,0-.11l0-.09h-.1a2.71,2.71,0,0,0-.59.19,10.45,10.45,0,0,1-1.13.32l-.11,0v.45l.39,0c.23,0,.29.06.3.07a.74.74,0,0,1,.07.39V8H5.13V6.58A2.53,2.53,0,0,0,4.9,5.39a1.65,1.65,0,0,0-1.59-.77,2.21,2.21,0,0,0-1.5.46,1.61,1.61,0,0,0-.41.5,1,1,0,0,0,0,.8l.05.07a.6.6,0,0,0,.49.22.65.65,0,0,0,.35-.09A.59.59,0,0,0,2.56,6a1.44,1.44,0,0,0,0-.23,1.33,1.33,0,0,1,0-.2.33.33,0,0,1,.19-.29,1,1,0,0,1,.47-.13c.35,0,.56.1.66.3a1.78,1.78,0,0,1,.1.73v.38a11.72,11.72,0,0,0-2,.89h0A2.22,2.22,0,0,0,1.4,8H1.17a.67.67,0,0,0-.67.67v5.6a.67.67,0,0,0,.67.67H15.83a.67.67,0,0,0,.67-.67V8.64A.67.67,0,0,0,15.83,8ZM7.42,6.36a.58.58,0,0,1,.31-.5,1.29,1.29,0,0,1,.7-.22,1,1,0,0,1,1,.63,3.29,3.29,0,0,1,.34,1.47c0,.08,0,.15,0,.23H7.42ZM3.07,7.54a4.65,4.65,0,0,1,.85-.39V8H2.57A2,2,0,0,1,3.07,7.54Z"/></svg>