<svg id="Layer_1" data-name="Layer 1" xmlns="http://www.w3.org/2000/svg" viewBox="0 0 17 17"><path d="M14.42,16.5H2.58A.46.46,0,0,1,2.13,16V1A.46.46,0,0,1,2.58.5H14.42a.46.46,0,0,1,.46.46V16A.46.46,0,0,1,14.42,16.5ZM2.74,15.89H14.26V1.11H2.74Z"/><rect x="3.79" y="7.97" width="9.43" height="1.62" rx="0.5" ry="0.5"/><rect x="3.79" y="10.66" width="9.43" height="1.62" rx="0.5" ry="0.5"/><rect x="3.79" y="13.36" width="9.43" height="1.62" rx="0.5" ry="0.5"/><path d="M4.7,4.3a.53.53,0,0,1-.39-.16.51.51,0,0,1-.16-.38.53.53,0,0,1,.16-.39.52.52,0,0,1,.39-.16.51.51,0,0,1,.38.16.54.54,0,0,1,.16.39.54.54,0,0,1-.53.53Z"/><path d="M7.64,4.3a.53.53,0,0,1-.39-.16.51.51,0,0,1-.16-.38.53.53,0,0,1,.16-.39.52.52,0,0,1,.39-.16A.51.51,0,0,1,8,3.37a.54.54,0,0,1,.16.39.54.54,0,0,1-.53.53ZM7.64,6a.53.53,0,0,1-.39-.16.51.51,0,0,1-.16-.38A.53.53,0,0,1,7.25,5a.52.52,0,0,1,.39-.16A.51.51,0,0,1,8,5a.54.54,0,0,1,.16.39A.54.54,0,0,1,7.64,6Z"/><path d="M10.58,4.3a.53.53,0,0,1-.39-.16A.51.51,0,0,1,10,3.76a.53.53,0,0,1,.16-.39.52.52,0,0,1,.39-.16.51.51,0,0,1,.38.16.54.54,0,0,1,.16.39.54.54,0,0,1-.53.53Zm1.73,0a.53.53,0,0,1-.39-.16.51.51,0,0,1-.16-.38.55.55,0,0,1,.55-.54.51.51,0,0,1,.38.16.53.53,0,0,1,.16.38.54.54,0,0,1-.53.53Z"/></svg>