<svg id="Layer_1" data-name="Layer 1" xmlns="http://www.w3.org/2000/svg" viewBox="0 0 17 17"><title>1</title><path d="M15.83,1.49H1.17a.67.67,0,0,0-.67.67V12.84a.67.67,0,0,0,.67.67H7.4A3.06,3.06,0,0,1,7.24,15a9.52,9.52,0,0,0-1.57.13c-.81.21-.69.85-.69.85H12s.13-.65-.69-.85A9.05,9.05,0,0,0,9.85,15a2.39,2.39,0,0,1-.16-1.45h6.14a.67.67,0,0,0,.67-.67V2.16A.67.67,0,0,0,15.83,1.49ZM15.6,4.64h0v6a.67.67,0,0,1-.67.66H2.06a.67.67,0,0,1-.67-.67V3.29a.67.67,0,0,1,.67-.67H14.94a.67.67,0,0,1,.67.67Z"/><path d="M7.88,3.76a.32.32,0,0,0-.23.1L6.14,5.37H4.45a.14.14,0,0,0-.14.14V8.19a.14.14,0,0,0,.14.14h1.7L7.65,9.84a.32.32,0,0,0,.23.1.33.33,0,0,0,.32-.33V4.09A.33.33,0,0,0,7.88,3.76Z"/><path d="M9.31,8a.28.28,0,0,1-.13,0,.32.32,0,0,1-.32-.32c0-.39.59-.28.59-.89S8.86,6.34,8.86,6a.32.32,0,0,1,.32-.32.28.28,0,0,1,.13,0A1.3,1.3,0,0,1,9.31,8Z"/><path d="M9.82,9.24l-.13,0a.33.33,0,0,1-.13-.62,2.6,2.6,0,0,0,.39-.22,1.94,1.94,0,0,0,0-3.14,2.6,2.6,0,0,0-.39-.22.33.33,0,0,1,.13-.62l.13,0a2.6,2.6,0,0,1,0,4.78Z"/><path d="M10.33,10.43l-.13,0a.32.32,0,0,1-.13-.62l.23-.11a3.61,3.61,0,0,0,.42-.26,3.25,3.25,0,0,0,0-5.24A3.61,3.61,0,0,0,10.3,4l-.23-.11a.32.32,0,0,1,.13-.62l.13,0a3.9,3.9,0,0,1,0,7.17Z"/></svg>