<svg id="Layer_1" data-name="Layer 1" xmlns="http://www.w3.org/2000/svg" viewBox="0 0 17 17"><circle cx="2.45" cy="12.14" r="1.16"/><path d="M2.45,13.37c-.86,0-1.57.52-1.57,1.16v2H4v-2C4,13.89,3.31,13.37,2.45,13.37Z"/><circle cx="8.5" cy="2.94" r="1.38"/><path d="M.88.5V9.29H5.51v.65h6V9.29h4.63V.5ZM15.52,8.69h-4V8.1h.79V7.42H12a.23.23,0,0,0,0-.12L10.1,4.81c-.24-.4-.53-.34-1.56-.34s-1.38-.08-1.64.35L5,7.3a.23.23,0,0,0,0,.12H4.72V8.1h.79v.59h-4V1.1h14ZM6.82,7.42H6L6.82,6.3Zm3.37,0V6.3L11,7.42Z"/><circle cx="6.48" cy="12.14" r="1.16"/><path d="M6.48,13.37c-.86,0-1.57.52-1.57,1.16v2H8v-2C8,13.89,7.35,13.37,6.48,13.37Z"/><circle cx="10.52" cy="12.14" r="1.16"/><path d="M10.52,13.37c-.86,0-1.57.52-1.57,1.16v2h3.13v-2C12.08,13.89,11.38,13.37,10.52,13.37Z"/><circle cx="14.55" cy="12.14" r="1.16"/><path d="M14.55,13.37c-.86,0-1.57.52-1.57,1.16v2h3.13v-2C16.12,13.89,15.42,13.37,14.55,13.37Z"/></svg>