<svg id="Layer_1" data-name="Layer 1" xmlns="http://www.w3.org/2000/svg" viewBox="0 0 17 17"><path d="M14.32,3.41a2.12,2.12,0,0,1,.85.17,2.16,2.16,0,0,1,.69.47,2.25,2.25,0,0,1,.47.7,2.12,2.12,0,0,1,.17.85v5.82a2.11,2.11,0,0,1-.17.84,2.25,2.25,0,0,1-.47.7,2.16,2.16,0,0,1-.69.47,2.12,2.12,0,0,1-.85.17H2.68a2.12,2.12,0,0,1-.85-.17A2.19,2.19,0,0,1,.67,12.26a2.11,2.11,0,0,1-.17-.84V5.59a2.12,2.12,0,0,1,.17-.85A2.2,2.2,0,0,1,1.84,3.58a2.12,2.12,0,0,1,.85-.17ZM7.87,5.84l-.06,0a3.61,3.61,0,0,0-.72-.24,3.41,3.41,0,0,0-.74-.08,3,3,0,0,0-.61.06,3.27,3.27,0,0,0-.59.18A3.53,3.53,0,0,0,4.61,6a2.5,2.5,0,0,0-.46.37,2.75,2.75,0,0,0-.62.95A3.12,3.12,0,0,0,3.32,8.5a3.48,3.48,0,0,0,.06.62,3.65,3.65,0,0,0,.16.59,3.13,3.13,0,0,0,.24.52,2.11,2.11,0,0,0,.76.77,3.85,3.85,0,0,0,.54.27,3.47,3.47,0,0,0,.56.17,2.36,2.36,0,0,0,.49.06A3.54,3.54,0,0,0,7,11.38a3.28,3.28,0,0,0,.81-.32l0,0V9.71l-.14.12a2,2,0,0,1-.61.34,2.1,2.1,0,0,1-.69.12,1.59,1.59,0,0,1-1.2-.46,1.49,1.49,0,0,1-.33-.56,2.33,2.33,0,0,1-.12-.76,2,2,0,0,1,.12-.71,1.69,1.69,0,0,1,.36-.57,1.62,1.62,0,0,1,1.22-.5,2.19,2.19,0,0,1,.67.11,1.93,1.93,0,0,1,.59.3l.15.1Zm5.81,0-.05,0a3.81,3.81,0,0,0-.72-.24,3.36,3.36,0,0,0-.73-.08,3.06,3.06,0,0,0-.61.06,3.25,3.25,0,0,0-.6.18,3.53,3.53,0,0,0-.54.28A2.5,2.5,0,0,0,10,6.4a2.67,2.67,0,0,0-.61.95A3.21,3.21,0,0,0,9.14,8.5a3.72,3.72,0,0,0,.05.62,3.41,3.41,0,0,0,.15.59,3.13,3.13,0,0,0,.24.52,2.11,2.11,0,0,0,.76.77,3.85,3.85,0,0,0,.54.27,3.47,3.47,0,0,0,.56.17,2.36,2.36,0,0,0,.49.06,3.55,3.55,0,0,0,.88-.12,3.14,3.14,0,0,0,.81-.32l.05,0V9.71l-.16.12a1.93,1.93,0,0,1-.6.34,2.1,2.1,0,0,1-.69.12A1.59,1.59,0,0,1,11,9.82a1.49,1.49,0,0,1-.33-.56,2.33,2.33,0,0,1-.12-.76,2,2,0,0,1,.12-.71,1.69,1.69,0,0,1,.36-.57,1.59,1.59,0,0,1,1.21-.5,2.17,2.17,0,0,1,.67.11,2,2,0,0,1,.6.3l.14.1Z"/></svg>