<svg id="Layer_1" data-name="Layer 1" xmlns="http://www.w3.org/2000/svg" viewBox="0 0 17 17"><defs><style>.cls-1{fill:none;}</style></defs><path d="M16.34,2.93c-.42-1-1.66-1.22-2.66-1.22H13V.93a.2.2,0,0,0-.19-.19.19.19,0,0,0-.14.06L11.12,2.34a.19.19,0,0,0,0,.27h0l1.55,1.55h0a.19.19,0,0,0,.14.06A.2.2,0,0,0,13,4V3.26h.68c1.31,0,2.17.25,2.17,1.7,0,.12,0,.25,0,.37s0,.1,0,.15a.1.1,0,0,0,.1.11A.1.1,0,0,0,16,5.54a1.61,1.61,0,0,0,.11-.23,3.85,3.85,0,0,0,.39-1.37A2.74,2.74,0,0,0,16.34,2.93Z"/><path d="M.67,14.12c.43,1,1.68,1.2,2.67,1.19H4v.78a.2.2,0,0,0,.2.19.19.19,0,0,0,.14-.06L5.9,14.64a.19.19,0,0,0,0-.27h0L4.32,12.83h0a.19.19,0,0,0-.14-.06A.2.2,0,0,0,4,13v.78H3.33c-1.31,0-2.17-.23-2.19-1.67,0-.12,0-.25,0-.37s0-.1,0-.15a.1.1,0,0,0-.1-.11A.1.1,0,0,0,1,11.5a1.61,1.61,0,0,0-.11.23A3.85,3.85,0,0,0,.5,13.11,2.74,2.74,0,0,0,.67,14.12Z"/><path class="cls-1" d="M3.62,10.72a.3.3,0,0,1-.32-.27V9.8a.3.3,0,0,1,.32-.27H6.53v-.7H3.62a.3.3,0,0,1-.32-.27V7.91a.3.3,0,0,1,.32-.27H6.53v-.7H3.62a.3.3,0,0,1-.32-.27V6a.3.3,0,0,1,.32-.27H6.53V5.39A.63.63,0,0,1,6.64,5h-3a.3.3,0,0,1-.32-.27V4.13a.3.3,0,0,1,.32-.27H9a.3.3,0,0,1,.32.27v.61H10V2.81H2.69v9H6.53v-1Z"/><polygon class="cls-1" points="3.62 6.07 3.62 6.61 6.53 6.61 6.53 6.07 3.62 6.07 3.62 6.07"/><polygon class="cls-1" points="9.03 4.72 9.03 4.18 3.62 4.18 3.62 4.18 3.62 4.72 9.03 4.72 9.03 4.72"/><polygon class="cls-1" points="3.62 9.86 3.62 10.39 6.53 10.39 6.53 9.86 3.62 9.86 3.62 9.86"/><polygon class="cls-1" points="3.62 7.96 3.62 8.5 6.53 8.5 6.53 7.96 3.62 7.96 3.62 7.96"/><path d="M2.69,11.77v-9H10V4.74h.65V2.81A.65.65,0,0,0,10,2.16H2.69A.65.65,0,0,0,2,2.81v9a.65.65,0,0,0,.65.65H6.53v-.65Z"/><path d="M7.18,4.74H9.36V4.13A.3.3,0,0,0,9,3.86H3.62a.3.3,0,0,0-.32.27v.65A.3.3,0,0,0,3.62,5h3A.64.64,0,0,1,7.18,4.74Zm-3.56,0V4.18H9v.54H3.62Z"/><path d="M3.62,6.61V6.07H6.53V5.75H3.62A.3.3,0,0,0,3.3,6v.65a.3.3,0,0,0,.32.27H6.53V6.61Z"/><path d="M3.62,8.5V8H6.53V7.64H3.62a.3.3,0,0,0-.32.27v.65a.3.3,0,0,0,.32.27H6.53V8.5Z"/><path d="M3.62,10.39V9.86H6.53V9.53H3.62a.3.3,0,0,0-.32.27v.65a.3.3,0,0,0,.32.27H6.53v-.33Z"/><path d="M14.44,4.74H7.18A.64.64,0,0,0,6.64,5a.63.63,0,0,0-.11.34v9a.65.65,0,0,0,.65.65h7.27a.65.65,0,0,0,.65-.65v-9A.65.65,0,0,0,14.44,4.74Zm0,9.61H7.18v-9h7.27Z"/><path d="M13.52,6.43H8.1c-.09,0-.16,0-.16.11v.65c0,.06.07.11.16.11h5.41c.09,0,.16,0,.16-.11V6.53C13.68,6.47,13.6,6.43,13.52,6.43Z"/><path d="M13.52,8.32H8.1c-.09,0-.16,0-.16.11v.65c0,.06.07.11.16.11h5.41c.09,0,.16,0,.16-.11V8.43C13.68,8.37,13.6,8.32,13.52,8.32Z"/><path d="M13.52,10.21H8.1c-.09,0-.16,0-.16.11V11c0,.06.07.11.16.11h5.41c.09,0,.16,0,.16-.11v-.65C13.68,10.26,13.6,10.21,13.52,10.21Z"/><path d="M13.52,12.1H8.1c-.09,0-.16,0-.16.11v.65c0,.06.07.11.16.11h5.41c.09,0,.16,0,.16-.11v-.65C13.68,12.15,13.6,12.1,13.52,12.1Z"/></svg>