<svg id="Layer_1" data-name="Layer 1" xmlns="http://www.w3.org/2000/svg" viewBox="0 0 17 17"><path d="M15.83,1.49H1.17a.67.67,0,0,0-.67.67V14.84a.67.67,0,0,0,.67.67H15.83a.67.67,0,0,0,.67-.67V2.16A.67.67,0,0,0,15.83,1.49ZM2.53,6.4a1.33,1.33,0,0,1,0-.2.33.33,0,0,1,.19-.29,1,1,0,0,1,.47-.13c.35,0,.56.1.66.3a1.78,1.78,0,0,1,.1.73v.38a11.72,11.72,0,0,0-2,.89h0a2.22,2.22,0,0,0-.54.5V7l.05.07a.6.6,0,0,0,.49.22.65.65,0,0,0,.35-.09.59.59,0,0,0,.27-.55A1.44,1.44,0,0,0,2.53,6.4Zm1.4,1.35V9.33a.47.47,0,0,1-.27.41.93.93,0,0,1-1,.06.72.72,0,0,1-.28-.64,1.26,1.26,0,0,1,.74-1A4.65,4.65,0,0,1,3.93,7.75Zm11.68.9h0l-.07.11a3.43,3.43,0,0,1-.56.67,1.41,1.41,0,0,1-.94.35,1.38,1.38,0,0,1-1.19-.61,2.4,2.4,0,0,1-.46-1.43,2.2,2.2,0,0,1,.41-1.39,1.18,1.18,0,0,1,1-.5.77.77,0,0,1,.41.09.55.55,0,0,1,.2.34l.07.27a.91.91,0,0,0,.26.46.63.63,0,0,0,.43.17.61.61,0,0,0,.49-.2ZM15.6,6a1.62,1.62,0,0,0-.39-.37,2.17,2.17,0,0,0-1.28-.38A2.49,2.49,0,0,0,12,6.11a3.05,3.05,0,0,0-.76,2.08,2.7,2.7,0,0,0,.71,2,2.23,2.23,0,0,0,1.64.73,2.19,2.19,0,0,0,1.66-.79,3.64,3.64,0,0,0,.38-.52v1.1a.67.67,0,0,1-.67.67H2.06a.67.67,0,0,1-.67-.67v-.25l.07.08a1.3,1.3,0,0,0,.93.38,2,2,0,0,0,1-.32,4.64,4.64,0,0,0,.55-.4,1.16,1.16,0,0,0,.18.4.75.75,0,0,0,.66.3,1.26,1.26,0,0,0,.71-.24,2,2,0,0,0,.41-.38l0,0V9.59l-.22.16a2,2,0,0,1-.27.18.37.37,0,0,1-.15,0,.16.16,0,0,1-.17-.13,1.33,1.33,0,0,1,0-.4V7.18A2.53,2.53,0,0,0,4.9,6a1.65,1.65,0,0,0-1.59-.77,2.21,2.21,0,0,0-1.5.46,1.83,1.83,0,0,0-.41.5V3.29a.67.67,0,0,1,.67-.67H14.94a.67.67,0,0,1,.67.67Z"/><path d="M8.92,5.24a2,2,0,0,0-1.27.45l-.21.2v-3a.35.35,0,0,0,0-.11l0-.09h-.1a2.71,2.71,0,0,0-.59.19,10.45,10.45,0,0,1-1.13.32l-.11,0v.45l.39,0c.23,0,.29.06.3.07a.74.74,0,0,1,.07.39V10c0,.23.22.43.68.62a3.32,3.32,0,0,0,1.27.26A2.67,2.67,0,0,0,10.24,10,3.08,3.08,0,0,0,11,7.86,2.85,2.85,0,0,0,10.42,6,1.9,1.9,0,0,0,8.92,5.24Zm.51,4.45a1.14,1.14,0,0,1-1,.52,2.09,2.09,0,0,1-.63-.12c-.3-.1-.33-.26-.34-.29V7a.58.58,0,0,1,.31-.5,1.29,1.29,0,0,1,.7-.22,1,1,0,0,1,1,.63,3.29,3.29,0,0,1,.34,1.47A2.44,2.44,0,0,1,9.43,9.69Z"/></svg>