<svg id="Layer_1" data-name="Layer 1" xmlns="http://www.w3.org/2000/svg" viewBox="0 0 17 17"><circle cx="6.27" cy="5.54" r="3.38"/><path d="M6.27,9.12c-2.52,0-4.56,1.51-4.56,3.38v4h9.12v-4C10.82,10.63,8.78,9.12,6.27,9.12Z"/><path d="M10.69,7a.38.38,0,0,1-.17,0,.44.44,0,0,1-.44-.44c0-.52.8-.38.8-1.21s-.8-.69-.8-1.21a.44.44,0,0,1,.44-.44.38.38,0,0,1,.17,0,1.76,1.76,0,0,1,0,3.24Z"/><path d="M11.39,8.65a.51.51,0,0,1-.17,0A.44.44,0,0,1,11,7.84a3.54,3.54,0,0,0,.52-.3,2.64,2.64,0,0,0,0-4.26A3.54,3.54,0,0,0,11,3a.44.44,0,0,1,.17-.85.51.51,0,0,1,.18,0,3.54,3.54,0,0,1,0,6.49Z"/><path d="M12.09,10.27a.52.52,0,0,1-.18,0,.44.44,0,0,1-.17-.85L12,9.31A4.9,4.9,0,0,0,12.61,9a4.42,4.42,0,0,0,0-7.12A4.9,4.9,0,0,0,12,1.49l-.31-.14A.44.44,0,0,1,11.91.5a.52.52,0,0,1,.18,0,5.3,5.3,0,0,1,0,9.74Z"/></svg>