<svg id="Layer_1" data-name="Layer 1" xmlns="http://www.w3.org/2000/svg" viewBox="0 0 17 17"><title>1</title><path d="M8.5,1A7.5,7.5,0,1,0,16,8.5,7.5,7.5,0,0,0,8.5,1ZM9,6.8c.54,0,1.09-.06,1.66-.12,0,.44.06.87.07,1.29H9ZM9,5.73V2.12a6.94,6.94,0,0,1,.93.13,23.7,23.7,0,0,1,.64,3.37C10.06,5.67,9.54,5.71,9,5.73ZM8,5.74c-.62,0-1.21,0-1.75-.09a23.25,23.25,0,0,1,.63-3.34A5.82,5.82,0,0,1,8,2.12ZM8,6.82V8H6.07c0-.41,0-.82,0-1.25C6.7,6.77,7.31,6.81,8,6.82ZM5,8H2.12A6.79,6.79,0,0,1,2.54,6.1a20.62,20.62,0,0,0,2.51.5C5,7.07,5,7.52,5,8ZM5,9c0,.5,0,1,.06,1.43A19.27,19.27,0,0,0,2.57,11a6.74,6.74,0,0,1-.45-2ZM6.07,9H8v1.16c-.66,0-1.28.06-1.85.12C6.1,9.91,6.08,9.48,6.07,9ZM8,11.26v3.62a6.5,6.5,0,0,1-1.17-.2,24.19,24.19,0,0,1-.58-3.29C6.76,11.33,7.34,11.28,8,11.26Zm1.06,0c.51,0,1,.05,1.58.09a24,24,0,0,1-.61,3.4,7.55,7.55,0,0,1-1,.14Zm0-1.07V9h1.73c0,.43,0,.85-.06,1.25C10.13,10.22,9.57,10.19,9,10.18ZM11.84,9h3A6.47,6.47,0,0,1,14.44,11a22.72,22.72,0,0,0-2.67-.56C11.8,10,11.83,9.51,11.84,9Zm0-1.06c0-.47,0-1-.07-1.44a20.6,20.6,0,0,0,2.63-.6,6.29,6.29,0,0,1,.49,2Zm2-3a18.84,18.84,0,0,1-2.21.5,24.84,24.84,0,0,0-.5-2.81A6.41,6.41,0,0,1,13.87,5ZM5.63,2.77a26.68,26.68,0,0,0-.48,2.76c-.88-.12-1.59-.28-2.1-.4A6.45,6.45,0,0,1,5.63,2.77ZM3.1,12a19.94,19.94,0,0,1,2.05-.44,24.21,24.21,0,0,0,.44,2.67A6.38,6.38,0,0,1,3.1,12Zm8.11,2.34a24.08,24.08,0,0,0,.47-2.84,17.15,17.15,0,0,1,2.24.46A6.38,6.38,0,0,1,11.21,14.31Z"/></svg>