<svg id="Layer_1" data-name="Layer 1" xmlns="http://www.w3.org/2000/svg" viewBox="0 0 17 17"><title>1</title><path d="M10.05,2.36h0a1.21,1.21,0,0,0-.69.32A1.31,1.31,0,0,0,8,1.7,1.11,1.11,0,0,0,7,2.93a1.37,1.37,0,0,0-1.24-.7,1.12,1.12,0,0,0-.9,1.27A1.11,1.11,0,0,0,3.72,3,.9.9,0,0,0,3,4.15l.41,2.43a1,1,0,0,0,1.13.88,2.18,2.18,0,0,0,.93-.59A1.1,1.1,0,0,0,7.56,7a1,1,0,0,0,1.15.43c.53-.12.6-.55.71-1a.78.78,0,0,0,.8.37.91.91,0,0,0,.84-1V3.53A1.09,1.09,0,0,0,10.05,2.36Z"/><path d="M13.91,4.68a7.56,7.56,0,0,1-.39-3.07c0-.81-.89-.66-1.28-.44a1.33,1.33,0,0,0-.6,1.12c0,.5.12.81.23,1.63a8.73,8.73,0,0,1,0,1.53,3.89,3.89,0,0,1-.36,1.83c-.21.12-.13.06-.76.2a2.1,2.1,0,0,0-1.46.88A2.58,2.58,0,0,0,8.89,11a.5.5,0,0,1-.28.65l-.16,0A.51.51,0,0,1,8,11.35,3.76,3.76,0,0,1,8.27,8.1,1.25,1.25,0,0,1,8,8a1.48,1.48,0,0,1-1.14.75H6.71a1.48,1.48,0,0,1-1.22-.64A1.38,1.38,0,0,1,5,8.34l-.26,0A2.19,2.19,0,0,1,3,7.44a10.19,10.19,0,0,0,.68,3C4.45,12.14,4.93,12.55,5,13a29.19,29.19,0,0,1,0,3h5.75V12.58a8.52,8.52,0,0,0,2.1-2.94C13.63,7.84,14.4,6,13.91,4.68Z"/></svg>