<svg id="Layer_1" data-name="Layer 1" xmlns="http://www.w3.org/2000/svg" viewBox="0 0 17 17"><path d="M15.83,1.49H1.17a.67.67,0,0,0-.67.67V14.84a.67.67,0,0,0,.67.67H15.83a.67.67,0,0,0,.67-.67V2.16A.67.67,0,0,0,15.83,1.49ZM13.06,12.64a3.58,3.58,0,0,1-.76.7,2.21,2.21,0,0,1-1.25.42A1.22,1.22,0,0,1,10,13.28a2.17,2.17,0,0,1-.37-1.15A10.36,10.36,0,0,1,8.17,13.2a3.75,3.75,0,0,1-1.9.59,2.29,2.29,0,0,1-1.64-.67,2.24,2.24,0,0,1-.69-1.69A3.13,3.13,0,0,1,5.53,8.78,24,24,0,0,1,9.57,7V6.05a3.85,3.85,0,0,0-.22-1.56A1.57,1.57,0,0,0,7.8,3.75,2.14,2.14,0,0,0,6.73,4a.91.91,0,0,0-.51.81,3,3,0,0,0,.06.45,3.17,3.17,0,0,1,.05.4.91.91,0,0,1-.41.86,1,1,0,0,1-.55.14.92.92,0,0,1-.76-.32,1.11,1.11,0,0,1-.26-.72A2.29,2.29,0,0,1,5.31,4,4.09,4.09,0,0,1,8.09,3.2,3,3,0,0,1,11,4.59a4.78,4.78,0,0,1,.41,2.21v4.41a3,3,0,0,0,.09.88.57.57,0,0,0,.59.43,1,1,0,0,0,.42-.08,4.26,4.26,0,0,0,.57-.37Z"/><path d="M5.89,10.68a1.69,1.69,0,0,0,.66,1.47,1.6,1.6,0,0,0,1,.31,2.63,2.63,0,0,0,1.39-.41,1.19,1.19,0,0,0,.67-1V7.54a10.09,10.09,0,0,0-2.09.92A2.72,2.72,0,0,0,5.89,10.68Z"/></svg>