<svg id="Layer_1" data-name="Layer 1" xmlns="http://www.w3.org/2000/svg" viewBox="0 0 17 17"><title>1</title><g id="g3640"><path id="path3642" d="M8.69,7a1.49,1.49,0,0,1,0,3H8.3V7Zm.15,4.29a2.8,2.8,0,1,0,0-5.59H7.12V11.3H8.84"/></g><path d="M5,5.7,1,11.3H2.8l.47-.74H5.32v.74H6.55V5.7Zm.31,3.69H4l1.29-2Z"/><g id="g3652"><path id="path3654" d="M14.91,5.7h-.68a4.17,4.17,0,0,1,1.22,2.93,4.12,4.12,0,0,1-1,2.65h.66A4.53,4.53,0,0,0,16,8.63,4.48,4.48,0,0,0,14.91,5.7"/></g><g id="g3656"><path id="path3658" d="M13.51,5.7h-.69a4.12,4.12,0,0,1,.25,5.58h.66a4.51,4.51,0,0,0-.22-5.58"/></g><g id="g3660"><path id="path3662" d="M12.09,5.7h-.68a4.12,4.12,0,0,1,.25,5.58h.66a4.5,4.5,0,0,0-.23-5.58"/></g></svg>