<svg id="Layer_1" data-name="Layer 1" xmlns="http://www.w3.org/2000/svg" viewBox="0 0 17 17"><defs><style>.cls-1{fill:none;}</style></defs><path class="cls-1" d="M4.34,11.79a1.2,1.2,0,0,0,.47,1,1.14,1.14,0,0,0,.68.22,1.87,1.87,0,0,0,1-.29A.85.85,0,0,0,7,12v-.36a2.45,2.45,0,0,1-1.63-1.36A1.85,1.85,0,0,0,4.34,11.79Z"/><path class="cls-1" d="M1,5.91v8.66a.12.12,0,0,0,.12.12H11.23a.12.12,0,0,0,.12-.12V11.75H8.26v.42a2.1,2.1,0,0,0,.06.63.41.41,0,0,0,.42.31A.7.7,0,0,0,9,13a3,3,0,0,0,.41-.27v.41a2.55,2.55,0,0,1-.54.5A1.58,1.58,0,0,1,8,14a.87.87,0,0,1-.77-.34A1.54,1.54,0,0,1,7,12.82a7.38,7.38,0,0,1-1,.77A2.67,2.67,0,0,1,4.61,14a1.63,1.63,0,0,1-1.17-.47,1.59,1.59,0,0,1-.49-1.2,2.23,2.23,0,0,1,1.14-1.9,8.21,8.21,0,0,1,1.1-.56,2.4,2.4,0,0,1-.07-.56V7l-.17.07a.65.65,0,0,0-.36.58,2.1,2.1,0,0,0,0,.32,2.26,2.26,0,0,1,0,.29.65.65,0,0,1-.29.61A.73.73,0,0,1,4,9a.66.66,0,0,1-.54-.23.79.79,0,0,1-.19-.51,1.63,1.63,0,0,1,.68-1.15,2.41,2.41,0,0,1,1.19-.52V5.79H1.16A.12.12,0,0,0,1,5.91Z"/><path d="M11.35,14.57a.12.12,0,0,1-.12.12H1.16A.12.12,0,0,1,1,14.57V5.91a.12.12,0,0,1,.12-.12H5.11V5.25H1.16a.66.66,0,0,0-.66.66v8.66a.66.66,0,0,0,.66.66H11.23a.66.66,0,0,0,.66-.66V11.75h-.54Z"/><path d="M3.92,7.07a1.63,1.63,0,0,0-.68,1.15.79.79,0,0,0,.19.51A.66.66,0,0,0,4,9a.73.73,0,0,0,.39-.1.65.65,0,0,0,.29-.61,2.26,2.26,0,0,0,0-.29,2.1,2.1,0,0,1,0-.32.65.65,0,0,1,.36-.58L5.11,7V6.54A2.41,2.41,0,0,0,3.92,7.07Z"/><path d="M7,11.67V12a.85.85,0,0,1-.47.74,1.87,1.87,0,0,1-1,.29,1.14,1.14,0,0,1-.68-.22,1.2,1.2,0,0,1-.47-1,1.85,1.85,0,0,1,1-1.48,2.41,2.41,0,0,1-.15-.44,8.21,8.21,0,0,0-1.1.56,2.23,2.23,0,0,0-1.14,1.9,1.59,1.59,0,0,0,.49,1.2A1.63,1.63,0,0,0,4.61,14,2.67,2.67,0,0,0,6,13.59a7.38,7.38,0,0,0,1-.77,1.54,1.54,0,0,0,.26.82A.87.87,0,0,0,8,14a1.58,1.58,0,0,0,.89-.3,2.55,2.55,0,0,0,.54-.5v-.41A3,3,0,0,1,9,13a.7.7,0,0,1-.3.05.41.41,0,0,1-.42-.31,2.1,2.1,0,0,1-.06-.63v-.42H7.54A2.4,2.4,0,0,1,7,11.67Z"/><path d="M7,11.67V9.55a7.18,7.18,0,0,0-1.49.66l-.14.1A2.45,2.45,0,0,0,7,11.67Z"/><path d="M7,8.49A2.74,2.74,0,0,0,6.8,7.38a1.12,1.12,0,0,0-1.1-.52A1.5,1.5,0,0,0,5.11,7V9.31a2.4,2.4,0,0,0,.07.56Q5.89,9.56,7,9.16Z"/><path d="M5.91,6.47A2.13,2.13,0,0,1,8,7.45,3.41,3.41,0,0,1,8.26,9v2.72h3.09V5.91a.12.12,0,0,0-.12-.12H5.11v.75A4.35,4.35,0,0,1,5.91,6.47Z"/><path d="M14.06,1.77H7.54A2.44,2.44,0,0,0,5.11,4.21v1h6.13a.66.66,0,0,1,.66.66v5.84h2.17A2.44,2.44,0,0,0,16.5,9.31V4.21A2.44,2.44,0,0,0,14.06,1.77Z"/></svg>