<svg id="Layer_1" data-name="Layer 1" xmlns="http://www.w3.org/2000/svg" viewBox="0 0 17 17"><path d="M11.5,5.74a4.66,4.66,0,0,0,0-.56.08.08,0,0,0-.08-.08H10.9a.08.08,0,0,0-.08.08V5.9a3.79,3.79,0,0,1-.15.93,2.26,2.26,0,0,1-4.33,0,3.79,3.79,0,0,1-.15-.93V5.19A.08.08,0,0,0,6.1,5.1H5.6a.08.08,0,0,0-.08.08,4.66,4.66,0,0,0,0,.56A3.75,3.75,0,0,0,5.68,7a2.91,2.91,0,0,0,.63,1.17,2.84,2.84,0,0,0,1.85.91V10.4H6.82a.08.08,0,0,0-.08.08V11a.08.08,0,0,0,.08.08h3.37a.08.08,0,0,0,.08-.08v-.5a.08.08,0,0,0-.08-.08H8.84V9.08a2.84,2.84,0,0,0,1.85-.91A2.91,2.91,0,0,0,11.32,7,3.75,3.75,0,0,0,11.5,5.74Z"/><path d="M8.5,8a1.66,1.66,0,0,0,1.66-1.66v-4a1.66,1.66,0,1,0-3.32,0v4A1.66,1.66,0,0,0,8.5,8Z"/><path d="M11.43,12.7a1.79,1.79,0,0,0-2.29-.11,5.26,5.26,0,0,0-.89.92,2.25,2.25,0,0,0-1.69-.93,1.47,1.47,0,0,0-1.11.49,1.8,1.8,0,0,0,0,2.4A1.48,1.48,0,0,0,6.55,16,2.25,2.25,0,0,0,8.25,15a5.5,5.5,0,0,0,.89.93,1.81,1.81,0,0,0,1.06.36,1.86,1.86,0,0,0,.93-.26,1.64,1.64,0,0,0,.67-.69A2.58,2.58,0,0,0,12,14.23,1.89,1.89,0,0,0,11.43,12.7Zm-.32,1.59a1.2,1.2,0,0,1-.27.84.85.85,0,0,1-.66.29.88.88,0,0,1-.53-.17,3.66,3.66,0,0,1-.85-1,4.68,4.68,0,0,1,.89-1,.84.84,0,0,1,.47-.14.88.88,0,0,1,.67.29A1.22,1.22,0,0,1,11.11,14.29Zm-3.43,0c-.41.51-.78.77-1.12.77a.63.63,0,0,1-.48-.21.95.95,0,0,1,0-1.16.61.61,0,0,1,.47-.2.94.94,0,0,1,.48.15A3,3,0,0,1,7.68,14.28Z"/></svg>