<svg id="Layer_1" data-name="Layer 1" xmlns="http://www.w3.org/2000/svg" viewBox="0 0 17 17"><path d="M10.62,12.7a1.79,1.79,0,0,0-2.29-.11,5.26,5.26,0,0,0-.89.92,2.25,2.25,0,0,0-1.69-.93,1.47,1.47,0,0,0-1.11.49,1.8,1.8,0,0,0,0,2.4A1.48,1.48,0,0,0,5.74,16,2.25,2.25,0,0,0,7.44,15a5.5,5.5,0,0,0,.89.93,1.81,1.81,0,0,0,1.06.36,1.86,1.86,0,0,0,.93-.26,1.64,1.64,0,0,0,.67-.69,2.58,2.58,0,0,0,.21-1.14A1.89,1.89,0,0,0,10.62,12.7Zm-.32,1.59a1.2,1.2,0,0,1-.27.84.85.85,0,0,1-.66.29.88.88,0,0,1-.53-.17,3.66,3.66,0,0,1-.85-1,4.68,4.68,0,0,1,.89-1,.84.84,0,0,1,.47-.14.88.88,0,0,1,.67.29A1.22,1.22,0,0,1,10.3,14.29Zm-3.43,0c-.41.51-.78.77-1.12.77a.63.63,0,0,1-.48-.21.95.95,0,0,1,0-1.16.61.61,0,0,1,.47-.2.94.94,0,0,1,.48.15A3,3,0,0,1,6.87,14.28Z"/><path d="M4.89,10.78c-.18.1-.33,0-.33-.19V1.94c0-.21.15-.29.33-.19l7.8,4.33c.18.1.18.26,0,.36Z"/></svg>