<svg id="Layer_1" data-name="Layer 1" xmlns="http://www.w3.org/2000/svg" viewBox="0 0 17 17"><path d="M13.57,5.23H3.37a.16.16,0,0,0-.16.16V16.34a.16.16,0,0,0,.16.16H13.57a.16.16,0,0,0,.16-.16V5.39A.16.16,0,0,0,13.57,5.23Zm-7.09,9.3a.16.16,0,0,1-.16.16h-1a.16.16,0,0,1-.16-.16V6.87a.16.16,0,0,1,.16-.16h1a.16.16,0,0,1,.16.16Zm2.63,0A.16.16,0,0,1,9,14.7H8a.16.16,0,0,1-.16-.16V6.87A.16.16,0,0,1,8,6.71H9a.16.16,0,0,1,.16.16Zm2.63,0a.16.16,0,0,1-.16.16h-1a.16.16,0,0,1-.16-.16V6.87a.16.16,0,0,1,.16-.16h1a.16.16,0,0,1,.16.16Z"/><path d="M14.55,2.55H12V1.31A.81.81,0,0,0,11.19.5H6a.81.81,0,0,0-.81.81V2.55H2.45a.16.16,0,0,0-.16.16V4.44a.16.16,0,0,0,.16.16h12.1a.16.16,0,0,0,.16-.16V2.72A.16.16,0,0,0,14.55,2.55ZM6.49,1.8H10.7v.76H6.49Z"/></svg>