<svg id="Layer_1" data-name="Layer 1" xmlns="http://www.w3.org/2000/svg" viewBox="0 0 17 17"><title>1</title><circle cx="8.5" cy="3.87" r="2.08"/><path d="M12.61,9.55a9,9,0,0,0-1.31.1V8.43c0-1.15-1.25-2.08-2.8-2.08s-2.8.93-2.8,2.08V9.65a9,9,0,0,0-1.31-.1,4.36,4.36,0,0,0-.46,0v4.6a20.17,20.17,0,0,1,4.57,1,20.17,20.17,0,0,1,4.57-1V9.57A4.36,4.36,0,0,0,12.61,9.55ZM8.12,14.27a23,23,0,0,0-3.44-.77V10.31a8.92,8.92,0,0,1,1,.1,6.3,6.3,0,0,1,2.39.84l0,0v3Zm4.2-.77a23,23,0,0,0-3.44.77v-3l0,0a6.3,6.3,0,0,1,2.39-.84,8.92,8.92,0,0,1,1-.1Z"/></svg>