<svg id="Layer_1" data-name="Layer 1" xmlns="http://www.w3.org/2000/svg" viewBox="0 0 17 17"><path d="M15,1.35H2a1,1,0,0,0-1,1V14.65a1,1,0,0,0,1,1H15a1,1,0,0,0,1-1V2.35A1,1,0,0,0,15,1.35ZM2,14.65V4.43H15V14.65Z"/><rect x="3.02" y="8.48" width="2" height="2" rx="0.5" ry="0.5"/><rect x="6" y="11.71" width="2" height="2" rx="0.5" ry="0.5"/><rect x="6" y="8.48" width="2" height="2" rx="0.5" ry="0.5"/><rect x="3.02" y="11.71" width="2" height="2" rx="0.5" ry="0.5"/><rect x="8.98" y="8.48" width="2" height="2" rx="0.5" ry="0.5"/><rect x="11.97" y="8.48" width="2" height="2" rx="0.5" ry="0.5"/><rect x="8.93" y="5.18" width="2" height="2" rx="0.5" ry="0.5"/><rect x="11.97" y="5.18" width="2" height="2" rx="0.5" ry="0.5"/><rect x="5.89" y="5.18" width="2" height="2" rx="0.5" ry="0.5"/></svg>