<svg id="Layer_1" data-name="Layer 1" xmlns="http://www.w3.org/2000/svg" viewBox="0 0 17 17"><title>1</title><circle cx="3.14" cy="11.72" r="1.03"/><path d="M3.14,12.81c-.76,0-1.38.46-1.38,1v1.75H4.53V13.83C4.53,13.27,3.91,12.81,3.14,12.81Z"/><circle cx="8.5" cy="3.58" r="1.22"/><path d="M1.76,1.42V9.2h4.1v.57h5.28V9.2h4.1V1.42Zm13,7.25H11.14V8.15h.71V7.54h-.24a.19.19,0,0,0,0-.1L9.91,5.24c-.21-.35-.47-.3-1.38-.3s-1.22-.07-1.45.31L5.42,7.44a.19.19,0,0,0,0,.1H5.15v.61h.71v.52H2.29V2H14.71ZM7,7.54H6.27l.74-1Zm3,0v-1l.74,1Z"/><path d="M7.74,11.72a1,1,0,1,0-1,1A1,1,0,0,0,7.74,11.72Z"/><path d="M6.71,12.81c-.76,0-1.38.46-1.38,1v1.75H8.1V13.83C8.1,13.27,7.48,12.81,6.71,12.81Z"/><circle cx="10.29" cy="11.72" r="1.03"/><path d="M10.29,12.81c-.77,0-1.39.46-1.39,1v1.75h2.77V13.83C11.67,13.27,11.05,12.81,10.29,12.81Z"/><path d="M14.88,11.72a1,1,0,1,0-1,1A1,1,0,0,0,14.88,11.72Z"/><path d="M13.86,12.81c-.77,0-1.39.46-1.39,1v1.75h2.77V13.83C15.24,13.27,14.62,12.81,13.86,12.81Z"/></svg>