<svg id="Layer_1" data-name="Layer 1" xmlns="http://www.w3.org/2000/svg" viewBox="0 0 17 17"><defs><style>.cls-1{fill:none;}</style></defs><path class="cls-1" d="M10.53,4.61V3h-6c-.1,0-.17.16-.17.25V8.2h8.72V5.43H11.43A.89.89,0,0,1,10.53,4.61Z"/><path class="cls-1" d="M11.43,4.78h1.19L11.18,3.51v1.1C11.18,4.7,11.33,4.78,11.43,4.78Z"/><path d="M15.06,7.22h-1.4V4.07L10.88,1.38H4.47a.89.89,0,0,0-.82.9V7.22H1.94a.5.5,0,0,0-.5.5v6a.5.5,0,0,0,.5.5H3.49v.65a.76.76,0,0,0,.82.74h8.38a.76.76,0,0,0,.82-.74v-.65h1.55a.5.5,0,0,0,.5-.5v-6A.5.5,0,0,0,15.06,7.22Zm-2.2,7v.65c0,.1-.08.1-.17.1H4.31c-.1,0-.17,0-.17-.1V12.31c0-.1.08-.1.17-.1h8.38c.1,0,.17,0,.17.1ZM11.08,2.53,12.52,3.8H11.34c-.1,0-.25-.08-.25-.18ZM4.3,2.28c0-.1.08-.25.17-.25h6v1.6a.89.89,0,0,0,.9.82H13V7.22H4.3Z"/></svg>