<svg id="Layer_1" data-name="Layer 1" xmlns="http://www.w3.org/2000/svg" viewBox="0 0 17 17"><path d="M5.58,14.57V5.75c0-.15-.07-.26-.16-.26h-1c-.09,0-.16.12-.16.26v8.83c0,.15.07.26.16.26h1C5.5,14.84,5.58,14.72,5.58,14.57Z"/><path d="M8,14.64V8.12a.18.18,0,0,0-.16-.2h-1a.18.18,0,0,0-.16.2v6.52a.18.18,0,0,0,.16.2h1A.18.18,0,0,0,8,14.64Z"/><path d="M10.49,14.7V10.19a.15.15,0,0,0-.16-.14h-1a.15.15,0,0,0-.16.14V14.7a.15.15,0,0,0,.16.14h1A.15.15,0,0,0,10.49,14.7Z"/><path d="M12.95,14.64V8.12a.18.18,0,0,0-.16-.2h-1a.18.18,0,0,0-.16.2v6.52a.18.18,0,0,0,.16.2h1A.18.18,0,0,0,12.95,14.64Z"/><path d="M11.48.37h-8a1.12,1.12,0,0,0-1,1.13V15.45a1,1,0,0,0,1,.93h10.5a1,1,0,0,0,1-.93V3.74Zm.25,1.44,1.81,1.6H12c-.12,0-.32-.1-.32-.22Zm2.43,13.63c0,.12-.1.12-.22.12H3.44c-.12,0-.22,0-.22-.12V1.5c0-.12.1-.32.22-.32h7.48v2a1.12,1.12,0,0,0,1.13,1h2.11Z"/></svg>