<svg id="Layer_1" data-name="Layer 1" xmlns="http://www.w3.org/2000/svg" viewBox="0 0 17 17"><title>Icons</title><path d="M15.46,8.34a1.73,1.73,0,0,0-2.75.45L8.82,8.31l-.69-.08h0L1,7.35s2.06,2.83,3.64,2.9c.78,0,2.81,0,4.67-.14l1.24,2a1.79,1.79,0,1,0,1-.64L10.94,10l1.59-.09a1.75,1.75,0,1,0,2.93-1.6Zm-3.21,4a.89.89,0,1,1-.32-.06A.89.89,0,0,1,12.26,12.33Zm2.64-2.11a.89.89,0,1,1,.25-.63A.88.88,0,0,1,14.89,10.22Z"/><path d="M10.09,7.92c-.64-1.56-1.3-3.14-1.63-3.76C7.73,2.77,4.3,2.1,4.3,2.1L7.77,7.65Z"/></svg>