<svg id="Layer_1" data-name="Layer 1" xmlns="http://www.w3.org/2000/svg" viewBox="0 0 17 17"><title>Icons</title><path d="M15.26,4.09H10.85V1.87a.75.75,0,0,0-.74-.74H1.75A.75.75,0,0,0,1,1.87v10.3a.75.75,0,0,0,.75.74H6.15v2.22a.75.75,0,0,0,.74.75h8.36a.75.75,0,0,0,.74-.75V4.83A.75.75,0,0,0,15.26,4.09ZM1.75,12.17V1.87H10.1V4.09H9.25v-.7c0-.07-.08-.12-.19-.12H2.84c-.1,0-.19.06-.19.12v.74c0,.07.08.12.19.12H6.47a.8.8,0,0,0-.19.19.72.72,0,0,0-.13.39v.6H2.83c-.1,0-.18.06-.18.12V6.3c0,.07.08.12.18.12H6.15V7.61H2.83c-.1,0-.18.06-.18.12v.74c0,.07.08.12.18.12H6.15V9.78H2.83c-.1,0-.18.06-.18.12v.74c0,.07.08.12.18.12H6.15v1.39Zm13.51,3H6.9V4.83h8.36Z"/><path d="M8,7h6.22c.1,0,.19-.06.19-.12V6.15c0-.07-.08-.12-.19-.12H8c-.1,0-.19.06-.19.12v.74C7.78,7,7.86,7,8,7Z"/><path d="M8,9.19h6.22c.1,0,.19-.06.19-.12V8.32c0-.07-.08-.12-.19-.12H8c-.1,0-.19.06-.19.12v.74C7.78,9.14,7.86,9.19,8,9.19Z"/><path d="M8,11.37h6.22c.1,0,.19-.06.19-.12V10.5c0-.07-.08-.12-.19-.12H8c-.1,0-.19.06-.19.12v.74C7.78,11.31,7.86,11.37,8,11.37Z"/><path d="M8,13.54h6.22c.1,0,.19-.06.19-.12v-.74c0-.07-.08-.12-.19-.12H8c-.1,0-.19.06-.19.12v.74C7.78,13.49,7.86,13.54,8,13.54Z"/></svg>