<svg id="Layer_1" data-name="Layer 1" xmlns="http://www.w3.org/2000/svg" viewBox="0 0 17 17"><title>Icons</title><path d="M14.55,6.05h-3V3a.77.77,0,0,0-.74-.81H9.52V3.39a.69.69,0,0,1-.69.69H4.57a.69.69,0,0,1-.69-.69V2.23H2.55a.72.72,0,0,0-.61.38A.83.83,0,0,0,1.8,3V14.21a.78.78,0,0,0,.74.81H6.63v.64a.65.65,0,0,0,.65.65h7.27a.65.65,0,0,0,.65-.65v-9A.65.65,0,0,0,14.55,6.05Zm0,9.61H7.28v-9h7.27Z"/><path d="M4.57,3.77H8.83a.39.39,0,0,0,.39-.39V2.19a.39.39,0,0,0-.39-.39h-1a1.1,1.1,0,0,0-2.21,0h-1a.39.39,0,0,0-.39.39v1.2A.39.39,0,0,0,4.57,3.77ZM6.7,1.3a.53.53,0,0,1,.53.53.53.53,0,0,1-1.05,0A.53.53,0,0,1,6.7,1.3Z"/><path d="M13.62,7.74H8.21c-.09,0-.16,0-.16.11v.65c0,.06.07.11.16.11h5.41c.09,0,.16,0,.16-.11V7.85C13.78,7.79,13.71,7.74,13.62,7.74Z"/><path d="M13.62,9.63H8.21c-.09,0-.16,0-.16.11v.65c0,.06.07.11.16.11h5.41c.09,0,.16,0,.16-.11V9.74C13.78,9.68,13.71,9.63,13.62,9.63Z"/><path d="M13.62,11.52H8.21c-.09,0-.16,0-.16.11v.65c0,.06.07.11.16.11h5.41c.09,0,.16,0,.16-.11v-.65C13.78,11.57,13.71,11.52,13.62,11.52Z"/><path d="M13.62,13.41H8.21c-.09,0-.16,0-.16.11v.65c0,.06.07.11.16.11h5.41c.09,0,.16,0,.16-.11v-.65C13.78,13.46,13.71,13.41,13.62,13.41Z"/></svg>