<svg id="Layer_1" data-name="Layer 1" xmlns="http://www.w3.org/2000/svg" viewBox="0 0 17 17"><title>1</title><path d="M13.4,4.73a3.23,3.23,0,0,0,.74-2.11,1.71,1.71,0,0,0-.71-1.22A1.74,1.74,0,0,0,12.08,1a3.19,3.19,0,0,0-1.86,1.24L10,2.54,13.18,5Z"/><path d="M14.12,15.35a3.36,3.36,0,0,0-2.86-1.83,3.71,3.71,0,0,0-2.18.83,3.57,3.57,0,0,1-2.14.8,11.78,11.78,0,0,1-3.3-.49l3.45-1.79,5.74-7.4L9.64,3,3.9,10.4l-1,4.37s0,.31,0,.31a.43.43,0,0,0,.27.3A12.17,12.17,0,0,0,6.94,16a4.37,4.37,0,0,0,2.61-.94,3,3,0,0,1,1.71-.69,2.5,2.5,0,0,1,2.1,1.36.42.42,0,1,0,.76-.38ZM11.82,5.6,7,11.76l-.41-1L11.08,5ZM9.77,4l.74.57L6.07,10.3l-1-.23ZM4.56,10.72h0L5.94,11l.55,1.34L5.39,13l-1.14-.89Z"/></svg>