<svg id="Layer_1" data-name="Layer 1" xmlns="http://www.w3.org/2000/svg" viewBox="0 0 17 17"><title>_</title><path d="M15.21,3.25H16a5,5,0,0,1-1.14,3.32A3.38,3.38,0,0,1,12.29,7.7a5.64,5.64,0,0,1-1.55-.23q-.82-.23-3.62-1.4a8.84,8.84,0,0,0-2.91-.84,2.23,2.23,0,0,0-1.56.57A3.27,3.27,0,0,0,1.8,7.69H1A5.19,5.19,0,0,1,2.12,4.33a3.23,3.23,0,0,1,2.46-1.1A5.39,5.39,0,0,1,6,3.43,35.67,35.67,0,0,1,9.86,4.88a16.32,16.32,0,0,0,2,.77,3.45,3.45,0,0,0,.9.11,2.27,2.27,0,0,0,1.65-.65A2.91,2.91,0,0,0,15.21,3.25Z"/><path d="M15.21,9.31H16a5,5,0,0,1-1.14,3.32,3.38,3.38,0,0,1-2.57,1.13,5.64,5.64,0,0,1-1.55-.23q-.82-.23-3.62-1.4a8.84,8.84,0,0,0-2.91-.84,2.23,2.23,0,0,0-1.56.57,3.27,3.27,0,0,0-.86,1.89H1a5.19,5.19,0,0,1,1.12-3.35A3.23,3.23,0,0,1,4.58,9.3,5.39,5.39,0,0,1,6,9.49a35.67,35.67,0,0,1,3.84,1.45,16.32,16.32,0,0,0,2,.77,3.45,3.45,0,0,0,.9.11,2.27,2.27,0,0,0,1.65-.65A2.91,2.91,0,0,0,15.21,9.31Z"/></svg>