<svg id="Layer_1" data-name="Layer 1" xmlns="http://www.w3.org/2000/svg" viewBox="0 0 17 17"><title>_</title><path d="M10.81,12H6.19V5h4.62Zm-4-.6h3.43V5.63H6.79Z"/><path d="M3.74,12.18a1.17,1.17,0,0,0,.39,1,1.86,1.86,0,0,0,1.13.32v.93a3,3,0,0,1-1.94-.58,1.93,1.93,0,0,1-.69-1.58v-2a1.12,1.12,0,0,0-.42-1A2.09,2.09,0,0,0,1,9V8a2.06,2.06,0,0,0,1.24-.32,1.13,1.13,0,0,0,.38-.94v-2a1.92,1.92,0,0,1,.71-1.59A3,3,0,0,1,5.26,2.6v.92q-1.52,0-1.52,1.32v2A1.57,1.57,0,0,1,2.26,8.46v.08a1.57,1.57,0,0,1,1.47,1.68Z"/><path d="M14.72,8.46a1.57,1.57,0,0,1-1.47-1.68v-2q0-1.28-1.5-1.32V2.6a2.92,2.92,0,0,1,1.91.58,2,2,0,0,1,.7,1.59v2a1.11,1.11,0,0,0,.39.94A2.11,2.11,0,0,0,16,8V9a2.11,2.11,0,0,0-1.22.29,1.12,1.12,0,0,0-.42,1v2a1.94,1.94,0,0,1-.68,1.58,3,3,0,0,1-1.93.58v-.93a1.82,1.82,0,0,0,1.12-.32,1.17,1.17,0,0,0,.38-1v-2a1.64,1.64,0,0,1,.36-1.15,1.91,1.91,0,0,1,1.11-.53Z"/></svg>