<svg id="Layer_1" data-name="Layer 1" xmlns="http://www.w3.org/2000/svg" viewBox="0 0 17 17"><title>1</title><path d="M14.11,3.16V4.81H9.7A7.39,7.39,0,0,1,12.07,6.9,4.46,4.46,0,0,1,13,9.57a3.82,3.82,0,0,1-1.45,3.06,5.06,5.06,0,0,1-3.3,1.21,4.93,4.93,0,0,1-3.76-1.72,5.66,5.66,0,0,1-1.58-4A4.91,4.91,0,0,1,3.72,5.3,4.36,4.36,0,0,1,5.65,3.62a7.86,7.86,0,0,1,3-.46ZM9,4.81h-.4a4.07,4.07,0,0,0-2.71.85,3.25,3.25,0,0,0-1,2.64,5.56,5.56,0,0,0,1.06,3.37,3.05,3.05,0,0,0,2.49,1.47A2.22,2.22,0,0,0,10.27,12,4.6,4.6,0,0,0,11,9.37,6.37,6.37,0,0,0,9,4.81Z"/></svg>