<svg id="Layer_1" data-name="Layer 1" xmlns="http://www.w3.org/2000/svg" viewBox="0 0 17 17"><title>1</title><path d="M4.31,11.09a2.44,2.44,0,0,1-.71,1.36,1.68,1.68,0,0,1-1.16.47,1.72,1.72,0,0,1-1.33-.64,2.48,2.48,0,0,1-.57-1.72,2.38,2.38,0,0,1,.63-1.72,2,2,0,0,1,1.51-.66,1.67,1.67,0,0,1,1.08.35,1,1,0,0,1,.42.73.41.41,0,0,1-.12.3.49.49,0,0,1-.33.11.51.51,0,0,1-.43-.18.67.67,0,0,1-.11-.39A.65.65,0,0,0,3,8.66a.71.71,0,0,0-.48-.15,1,1,0,0,0-.78.36,1.9,1.9,0,0,0-.4,1.27,2.5,2.5,0,0,0,.4,1.41,1.19,1.19,0,0,0,1.06.61,1.33,1.33,0,0,0,.86-.32A2.27,2.27,0,0,0,4.17,11Z"/><path d="M7,8.18A2,2,0,0,1,8.59,9a2.37,2.37,0,0,1,.52,1.52,2.72,2.72,0,0,1-.29,1.21A2,2,0,0,1,6.9,12.92a1.87,1.87,0,0,1-1.6-.8,2.46,2.46,0,0,1-.5-1.52,2.75,2.75,0,0,1,.3-1.23A2,2,0,0,1,7,8.18Zm-.15.32a1,1,0,0,0-.52.15,1.14,1.14,0,0,0-.43.54,2.77,2.77,0,0,0-.16,1,3.43,3.43,0,0,0,.39,1.69,1.16,1.16,0,0,0,1,.71,1,1,0,0,0,.79-.39,2.28,2.28,0,0,0,.3-1.35A3.07,3.07,0,0,0,7.69,9,1.07,1.07,0,0,0,6.81,8.5Z"/><path d="M12.42,8.18V9.71h-.16a1.89,1.89,0,0,0-.48-1A1.08,1.08,0,0,0,11,8.47a.83.83,0,0,0-.55.18.53.53,0,0,0-.21.4.76.76,0,0,0,.16.47,1.84,1.84,0,0,0,.61.43l.72.34a1.45,1.45,0,0,1,1,1.28,1.23,1.23,0,0,1-.46,1,1.6,1.6,0,0,1-1,.37,3.39,3.39,0,0,1-.93-.14,1.12,1.12,0,0,0-.27,0,.19.19,0,0,0-.17.13H9.73v-1.6h.16a1.77,1.77,0,0,0,.52,1,1.28,1.28,0,0,0,.86.35.77.77,0,0,0,.55-.2A.64.64,0,0,0,12,12a.74.74,0,0,0-.24-.56,4,4,0,0,0-1-.59,2.63,2.63,0,0,1-.92-.63,1.09,1.09,0,0,1-.22-.7,1.23,1.23,0,0,1,.38-.93,1.34,1.34,0,0,1,1-.37,2.14,2.14,0,0,1,.64.12,2.22,2.22,0,0,0,.34.07.16.16,0,0,0,.12,0,.42.42,0,0,0,.1-.15Z"/><path d="M13.35,7.93h1.47v.43H13.35Z"/><path d="M15.15,6l.94-.46h.09V8.78a1.54,1.54,0,0,0,0,.4.25.25,0,0,0,.11.12.88.88,0,0,0,.35,0v.11H15.22V9.35a1.11,1.11,0,0,0,.35,0,.21.21,0,0,0,.11-.12,1.31,1.31,0,0,0,0-.41V6.69a2.91,2.91,0,0,0,0-.54A.24.24,0,0,0,15.61,6a.16.16,0,0,0-.12,0,1,1,0,0,0-.3.08Z"/></svg>