<svg id="Layer_1" data-name="Layer 1" xmlns="http://www.w3.org/2000/svg" viewBox="0 0 17 17"><title>1</title><path d="M6.16,11.09a2.44,2.44,0,0,1-.71,1.36,1.68,1.68,0,0,1-1.17.47A1.72,1.72,0,0,1,3,12.28a2.52,2.52,0,0,1-.56-1.72A2.42,2.42,0,0,1,3,8.84a2,2,0,0,1,1.51-.66,1.65,1.65,0,0,1,1.08.35A1,1,0,0,1,6,9.26a.41.41,0,0,1-.12.3.49.49,0,0,1-.33.11.53.53,0,0,1-.44-.18A.87.87,0,0,1,5,9.1a.61.61,0,0,0-.2-.44.68.68,0,0,0-.47-.15,1,1,0,0,0-.79.36,2,2,0,0,0-.39,1.27,2.58,2.58,0,0,0,.39,1.41,1.2,1.2,0,0,0,1.06.61,1.31,1.31,0,0,0,.86-.32A2.14,2.14,0,0,0,6,11Z"/><path d="M8.8,8.18A2,2,0,0,1,10.43,9,2.38,2.38,0,0,1,11,10.47a2.86,2.86,0,0,1-.29,1.21,2.14,2.14,0,0,1-.79.93,2.11,2.11,0,0,1-1.13.31,1.9,1.9,0,0,1-1.61-.8,2.52,2.52,0,0,1-.5-1.52A2.64,2.64,0,0,1,7,9.37a2.14,2.14,0,0,1,.8-.9A2.08,2.08,0,0,1,8.8,8.18Zm-.15.32a1.06,1.06,0,0,0-.52.15,1.19,1.19,0,0,0-.42.54,2.56,2.56,0,0,0-.16,1,3.43,3.43,0,0,0,.39,1.69,1.16,1.16,0,0,0,1,.71.94.94,0,0,0,.78-.39,2.2,2.2,0,0,0,.31-1.35A3.07,3.07,0,0,0,9.54,9,1.08,1.08,0,0,0,8.65,8.5Z"/><path d="M14.27,8.18V9.71h-.16a2.06,2.06,0,0,0-.48-1,1.08,1.08,0,0,0-.74-.26.81.81,0,0,0-.55.18.53.53,0,0,0-.21.4.75.75,0,0,0,.15.47,1.91,1.91,0,0,0,.62.43l.71.34a1.45,1.45,0,0,1,1,1.28,1.2,1.2,0,0,1-.46,1,1.59,1.59,0,0,1-1,.37,3.45,3.45,0,0,1-.94-.14,1.05,1.05,0,0,0-.26,0c-.08,0-.13,0-.18.13h-.16v-1.6h.16a1.78,1.78,0,0,0,.53,1,1.24,1.24,0,0,0,.86.35.79.79,0,0,0,.55-.2.63.63,0,0,0,.21-.48.74.74,0,0,0-.24-.56,3.85,3.85,0,0,0-.94-.59,2.8,2.8,0,0,1-.93-.63,1.15,1.15,0,0,1-.22-.7,1.27,1.27,0,0,1,.38-.93,1.37,1.37,0,0,1,1-.37,2.14,2.14,0,0,1,.64.12,2.46,2.46,0,0,0,.33.07.16.16,0,0,0,.12,0,.41.41,0,0,0,.11-.15Z"/></svg>