<svg id="Layer_1" data-name="Layer 1" xmlns="http://www.w3.org/2000/svg" viewBox="0 0 17 17"><title>_</title><path d="M15.74,8.9V11H1.26V8.9Z"/><path d="M15.74,14.06v2.08H1.26V14.06Z"/><path d="M15.21.88H16a5,5,0,0,1-1.14,3.32,3.38,3.38,0,0,1-2.57,1.13,5.64,5.64,0,0,1-1.55-.23q-.82-.23-3.62-1.4a8.84,8.84,0,0,0-2.91-.84,2.23,2.23,0,0,0-1.56.57A3.27,3.27,0,0,0,1.8,5.31H1A5.19,5.19,0,0,1,2.12,2,3.23,3.23,0,0,1,4.58.86,5.39,5.39,0,0,1,6,1.05,35.67,35.67,0,0,1,9.86,2.5a16.32,16.32,0,0,0,2,.77,3.45,3.45,0,0,0,.9.11,2.27,2.27,0,0,0,1.65-.65A2.91,2.91,0,0,0,15.21.88Z"/></svg>