<svg id="Layer_1" data-name="Layer 1" xmlns="http://www.w3.org/2000/svg" viewBox="0 0 17 17"><title>_</title><path d="M3.9,8.51A4.45,4.45,0,0,1,5.24,5.25,4.41,4.41,0,0,1,8.49,3.9a4.45,4.45,0,0,1,3.26,1.34A4.43,4.43,0,0,1,13.1,8.51a4.53,4.53,0,0,1-.6,2.29,4.47,4.47,0,0,1-1.68,1.67,4.57,4.57,0,0,1-2.32.62,4.44,4.44,0,0,1-3.25-1.33A4.42,4.42,0,0,1,3.9,8.51Zm1.7,0a2.75,2.75,0,0,0,.86,2.05,2.85,2.85,0,0,0,2.06.84A2.87,2.87,0,0,0,11.4,8.51a2.81,2.81,0,0,0-.83-2.07,2.78,2.78,0,0,0-2-.83,2.83,2.83,0,0,0-2.07.84A2.8,2.8,0,0,0,5.6,8.51Z"/></svg>