<svg id="Layer_1" data-name="Layer 1" xmlns="http://www.w3.org/2000/svg" viewBox="0 0 17 17"><title>_</title><path d="M11.32,3.08c-.11-.14-.21-.26-.32-.38L11.53,1H10.2l-.27.85a2.93,2.93,0,0,0-1.39-.36,3.12,3.12,0,0,0-1.85.65A5.56,5.56,0,0,0,4.83,4.62a10.28,10.28,0,0,0-.7,4,9.27,9.27,0,0,0,1.08,4.63A6.17,6.17,0,0,0,6,14.32L5.47,16H6.82l.26-.81a3,3,0,0,0,1.36.32,3.53,3.53,0,0,0,2-.74,5.28,5.28,0,0,0,1.73-2.38,10.48,10.48,0,0,0,.68-4A8.37,8.37,0,0,0,11.32,3.08ZM6.09,8.85a24.15,24.15,0,0,1,.26-3.49,5.07,5.07,0,0,1,1-2.6,1.57,1.57,0,0,1,1.2-.61,1.52,1.52,0,0,1,1,.33,2,2,0,0,1,.17.17l-3.15,10A14.2,14.2,0,0,1,6.09,8.85Zm4.37,3.93a3.07,3.07,0,0,1-.88,1.62,1.77,1.77,0,0,1-1.11.48,1.48,1.48,0,0,1-1.13-.52l3.15-10A13.6,13.6,0,0,1,10.91,8,19.67,19.67,0,0,1,10.46,12.78Z"/></svg>