<svg id="Layer_1" data-name="Layer 1" xmlns="http://www.w3.org/2000/svg" viewBox="0 0 17 17"><title>_</title><path d="M7.65,6.93A5.84,5.84,0,0,1,9.3,4.53a4,4,0,0,1,2.45-.67,4,4,0,0,1,3,1.29A4.63,4.63,0,0,1,16,8.48a4.77,4.77,0,0,1-1.2,3.34,3.56,3.56,0,0,1-2.67,1.31,3.07,3.07,0,0,1-2-.81A10.39,10.39,0,0,1,8.39,10a5.47,5.47,0,0,1-1.55,2,3.41,3.41,0,0,1-2,.6,3.61,3.61,0,0,1-2.7-1.14A4.07,4.07,0,0,1,1,8.46,4.21,4.21,0,0,1,2,5.51,3.13,3.13,0,0,1,4.4,4.39a2.94,2.94,0,0,1,1.69.49A5.77,5.77,0,0,1,7.65,6.93Zm-.32.85A4.85,4.85,0,0,0,6.09,6a2.61,2.61,0,0,0-1.72-.58,2.62,2.62,0,0,0-2,.83,3.06,3.06,0,0,0-.79,2.21,3.42,3.42,0,0,0,.78,2.36,2.32,2.32,0,0,0,1.77.88A2.4,2.4,0,0,0,6,10.75,10.89,10.89,0,0,0,7.33,7.79Zm1.39,1.4a6.25,6.25,0,0,0,1.64,2.32,3.11,3.11,0,0,0,4.1-.39,3.71,3.71,0,0,0,.91-2.63,3.86,3.86,0,0,0-1-2.69,2.87,2.87,0,0,0-2.16-1.06,2.32,2.32,0,0,0-1.34.39,3.47,3.47,0,0,0-1,1.24Q9.6,6.85,8.72,9.18Z"/></svg>