<svg id="Layer_1" data-name="Layer 1" xmlns="http://www.w3.org/2000/svg" viewBox="0 0 17 17"><title>1</title><path d="M4,16H2.68V9.75c0-1.74,0-2.84.07-3.31a7.57,7.57,0,0,1,.46-2.08,5.53,5.53,0,0,1,1.1-1.6A5.63,5.63,0,0,1,6.16,1.49a5.8,5.8,0,0,1,4.62,0,5.77,5.77,0,0,1,1.89,1.27,4.91,4.91,0,0,1,1.15,1.71,8.12,8.12,0,0,1,.45,2.25c0,.36.05,1.38.05,3.05V16H13V9.68c0-1.51,0-2.48-.06-2.92a6.56,6.56,0,0,0-.37-1.82,3.94,3.94,0,0,0-.82-1.27,4.4,4.4,0,0,0-1.43-1A4.31,4.31,0,0,0,8.5,2.31a4.43,4.43,0,0,0-1.83.41A4.23,4.23,0,0,0,5.18,3.78a3.86,3.86,0,0,0-.81,1.43,8.55,8.55,0,0,0-.29,1.84c0,.37,0,1.25,0,2.63Z"/></svg>