<svg id="Layer_1" data-name="Layer 1" xmlns="http://www.w3.org/2000/svg" viewBox="0 0 17 17"><title>_</title><path d="M2.89,3v7.24a2,2,0,0,0,.07.68.53.53,0,0,0,.23.25,1.32,1.32,0,0,0,.58.09v.21H1.1V11.2a1.16,1.16,0,0,0,.51-.08.52.52,0,0,0,.21-.26,2,2,0,0,0,.08-.68v-5a8.59,8.59,0,0,0,0-1.13.5.5,0,0,0-.13-.29.35.35,0,0,0-.24-.08,1.11,1.11,0,0,0-.39.1L1,3.62,2.63,3Z"/><path d="M7.07,5.8a2.42,2.42,0,0,1,2,.94A2.89,2.89,0,0,1,9.7,8.59a3.48,3.48,0,0,1-.35,1.48A2.5,2.5,0,0,1,7,11.58a2.31,2.31,0,0,1-2-1,3,3,0,0,1-.61-1.86,3.3,3.3,0,0,1,.37-1.49,2.54,2.54,0,0,1,1-1.1A2.51,2.51,0,0,1,7.07,5.8Zm-.18.39a1.24,1.24,0,0,0-.63.19A1.32,1.32,0,0,0,5.74,7a3.17,3.17,0,0,0-.2,1.21A4.21,4.21,0,0,0,6,10.3a1.41,1.41,0,0,0,1.25.86,1.16,1.16,0,0,0,1-.48A2.71,2.71,0,0,0,8.59,9,3.73,3.73,0,0,0,8,6.76,1.29,1.29,0,0,0,6.89,6.19Z"/><path d="M12,9.43a1.79,1.79,0,0,1-1-1.65,1.86,1.86,0,0,1,.61-1.39A2.17,2.17,0,0,1,13.1,5.8a2.38,2.38,0,0,1,1.35.38H15.9a.1.1,0,0,1,.06.05.37.37,0,0,1,0,.19.53.53,0,0,1,0,.21.12.12,0,0,1-.06,0,1.32,1.32,0,0,1-.3,0H14.9a1.73,1.73,0,0,1,.33,1.1,1.72,1.72,0,0,1-.58,1.3,2.21,2.21,0,0,1-1.57.54,3,3,0,0,1-.83-.12,1.57,1.57,0,0,0-.35.4.63.63,0,0,0-.09.29.28.28,0,0,0,.1.2.72.72,0,0,0,.38.14q.17,0,.83,0,1.23,0,1.59.08a1.49,1.49,0,0,1,.88.41,1.12,1.12,0,0,1,.33.82,1.72,1.72,0,0,1-.63,1.26,3.4,3.4,0,0,1-2.42.87,3.47,3.47,0,0,1-1.94-.52q-.45-.3-.45-.62a.68.68,0,0,1,.07-.29A3.33,3.33,0,0,1,11,12l.61-.64a1.88,1.88,0,0,1-.44-.33.49.49,0,0,1-.13-.33,1,1,0,0,1,.17-.49A3.91,3.91,0,0,1,12,9.43Zm-.06,2a2.93,2.93,0,0,0-.42.57,1,1,0,0,0-.14.48.6.6,0,0,0,.35.5,3.29,3.29,0,0,0,1.72.37A2.66,2.66,0,0,0,15,13a1,1,0,0,0,.51-.81.45.45,0,0,0-.3-.44A4,4,0,0,0,14,11.55,19.6,19.6,0,0,1,11.9,11.42ZM13,6.09a.93.93,0,0,0-.74.35A1.64,1.64,0,0,0,12,7.52,2.32,2.32,0,0,0,12.37,9a1,1,0,0,0,.79.39A.94.94,0,0,0,13.9,9,1.61,1.61,0,0,0,14.19,8a2.38,2.38,0,0,0-.41-1.48A.94.94,0,0,0,13,6.09Z"/></svg>