<svg id="Layer_1" data-name="Layer 1" xmlns="http://www.w3.org/2000/svg" viewBox="0 0 17 17"><title>1</title><path d="M9.66,9.18C8.51,10.41,7.51,11,6.65,11a2.25,2.25,0,0,1-1.52-.63v.5a6.37,6.37,0,0,0,.26,1.77A5.43,5.43,0,0,1,5.7,14a1,1,0,0,1-.28.72.91.91,0,0,1-.68.29.77.77,0,0,1-.67-.34,1.27,1.27,0,0,1-.25-.8,5.41,5.41,0,0,1,.25-1.24,7,7,0,0,0,.29-1.93V2H5.93V7.68a3.9,3.9,0,0,0,.15,1.26,1.32,1.32,0,0,0,.52.65,1.5,1.5,0,0,0,.86.26,3.86,3.86,0,0,0,2.2-1.17V2h1.58V8.65a2.78,2.78,0,0,0,.17,1.16.62.62,0,0,0,.59.32c.43,0,.71-.42.84-1.27h.34c-.12,1.45-.73,2.17-1.83,2.17a1.59,1.59,0,0,1-1.19-.48A2,2,0,0,1,9.66,9.18Z"/></svg>