<svg id="Layer_1" data-name="Layer 1" xmlns="http://www.w3.org/2000/svg" viewBox="0 0 17 17"><title>1</title><path d="M8,4.94a2.85,2.85,0,0,1,.32.74A10.26,10.26,0,0,1,8.49,7l.3,3.36c.27-.32.67-.84,1.19-1.55.25-.35.56-.82.93-1.42a5.2,5.2,0,0,0,.41-.76.62.62,0,0,0,0-.23.13.13,0,0,0,0-.12.62.62,0,0,0-.25-.12A.65.65,0,0,1,10.73,6a.62.62,0,0,1-.13-.4.64.64,0,0,1,.16-.45.57.57,0,0,1,.41-.17.66.66,0,0,1,.51.25,1.05,1.05,0,0,1,.21.69,2.72,2.72,0,0,1-.36,1.23A18.5,18.5,0,0,1,10.1,9.24c-.7,1-1.55,2-2.55,3.13A8.31,8.31,0,0,1,6,13.85a1.74,1.74,0,0,1-.85.3A.49.49,0,0,1,4.8,14a.51.51,0,0,1-.17-.37.68.68,0,0,1,.23-.49.71.71,0,0,1,.48-.22.36.36,0,0,1,.22.06.43.43,0,0,1,.12.2.83.83,0,0,0,.12.21.11.11,0,0,0,.09,0A.33.33,0,0,0,6,13.35a4.63,4.63,0,0,0,.87-.74,11,11,0,0,0,1-1.09L7.49,7.18a3.07,3.07,0,0,0-.28-1.3.79.79,0,0,0-.65-.23,4.74,4.74,0,0,0-.51,0L6,5.43Z"/><rect x="5.75" y="2.85" width="6.62" height="0.96"/></svg>