<svg id="Layer_1" data-name="Layer 1" xmlns="http://www.w3.org/2000/svg" viewBox="0 0 17 17"><title>1</title><path d="M11.67,13.06a3.3,3.3,0,0,0-1.58-2.59l4-5.52-.72-.52L6.49,13.95h9.19v-.89Zm-2-2a2.54,2.54,0,0,1,1.28,2H8.23Z"/><path d="M5.74,13.71a.19.19,0,0,1-.08-.08,1.07,1.07,0,0,1,0-.36V12a1.9,1.9,0,0,0-.08-.63.92.92,0,0,0-.33-.45,1,1,0,0,0-1,0,2,2,0,0,0-.49.42.85.85,0,0,0-.26-.37.9.9,0,0,0-.92-.11,1.28,1.28,0,0,0-.34.21l-.25.24v-.52H1.71l-1,.41.12.28.08,0c.13-.05.23-.06.27,0a.18.18,0,0,1,0,.1,4.22,4.22,0,0,1,0,.63v1.16a1,1,0,0,1,0,.34.2.2,0,0,1-.09.1.56.56,0,0,1-.25,0H.76V14H2.44v-.3H2.35a.69.69,0,0,1-.29,0A.2.2,0,0,1,2,13.62a1,1,0,0,1,0-.35V11.68a1.34,1.34,0,0,1,.38-.28.65.65,0,0,1,.31-.08.38.38,0,0,1,.33.17.92.92,0,0,1,.09.48v1.3a1.62,1.62,0,0,1,0,.3.22.22,0,0,1-.09.13.62.62,0,0,1-.3,0H2.57V14H4.28v-.3H4.19a.65.65,0,0,1-.29,0,.2.2,0,0,1-.09-.09,1.13,1.13,0,0,1,0-.35V11.7h0a1.8,1.8,0,0,1,.39-.29.7.7,0,0,1,.31-.08.36.36,0,0,1,.34.17,1,1,0,0,1,.08.48v1.3a2.09,2.09,0,0,1,0,.3.21.21,0,0,1-.07.12.45.45,0,0,1-.25.06H4.4V14H6.08v-.3H6A.52.52,0,0,1,5.74,13.71Z"/></svg>