<svg id="Layer_1" data-name="Layer 1" xmlns="http://www.w3.org/2000/svg" viewBox="0 0 17 17"><title>1</title><path d="M8.11,6.39a3.38,3.38,0,0,1,.51.71A11.36,11.36,0,0,1,9,8.39l.6-.9a3.37,3.37,0,0,1,.58-.62,2.37,2.37,0,0,1,.6-.41.87.87,0,0,1,.37-.07.63.63,0,0,1,.46.16.48.48,0,0,1,.18.38.55.55,0,0,1-.1.36.67.67,0,0,1-.44.17A.89.89,0,0,1,11,7.4a1.44,1.44,0,0,0-.43-.11.63.63,0,0,0-.39.19,5.44,5.44,0,0,0-1,1.37l.56,2.35a2.21,2.21,0,0,0,.22.65.26.26,0,0,0,.18.11.62.62,0,0,0,.33-.16,2.54,2.54,0,0,0,.64-.82l.24.12a4.12,4.12,0,0,1-1.09,1.34,1.1,1.1,0,0,1-.64.3A.69.69,0,0,1,9,12.31,18,18,0,0,1,8.37,10,9.47,9.47,0,0,1,6.66,12.4a1.29,1.29,0,0,1-.81.34.69.69,0,0,1-.49-.2.51.51,0,0,1-.17-.4.54.54,0,0,1,.15-.38.5.5,0,0,1,.37-.15.77.77,0,0,1,.47.22.46.46,0,0,0,.27.16.42.42,0,0,0,.21-.11,5,5,0,0,0,.88-1.12,10.21,10.21,0,0,0,.72-1.24C8,8.41,7.83,7.82,7.8,7.76a1.22,1.22,0,0,0-.41-.63A1.26,1.26,0,0,0,6.65,7H6.29V6.71Z"/><rect x="5.19" y="4.26" width="6.62" height="0.96"/></svg>