<svg id="Layer_1" data-name="Layer 1" xmlns="http://www.w3.org/2000/svg" viewBox="0 0 17 17"><title>_</title><path d="M5.86,4.27V11.5a2,2,0,0,0,.07.68.53.53,0,0,0,.23.25,1.32,1.32,0,0,0,.58.09v.21H4.07v-.21a1.16,1.16,0,0,0,.51-.08.52.52,0,0,0,.21-.26,2,2,0,0,0,.08-.68v-5a8.59,8.59,0,0,0,0-1.13.5.5,0,0,0-.13-.29A.35.35,0,0,0,4.46,5a1.11,1.11,0,0,0-.39.1L4,4.93l1.63-.67Z"/><path d="M9,8.27a2.57,2.57,0,0,1,1.83-1.16,1.31,1.31,0,0,1,.77.22,1.5,1.5,0,0,1,.51.74,3.4,3.4,0,0,1,.13,1.1V11.5a2,2,0,0,0,.08.7.49.49,0,0,0,.21.23,1.2,1.2,0,0,0,.54.08v.21h-2.7v-.21h.11A.91.91,0,0,0,11,12.4a.61.61,0,0,0,.21-.34,3.48,3.48,0,0,0,0-.56V9.27A2.27,2.27,0,0,0,11,8.19a.69.69,0,0,0-.65-.34A2,2,0,0,0,9,8.63V11.5a2.06,2.06,0,0,0,.07.68.55.55,0,0,0,.23.25,1.42,1.42,0,0,0,.59.08v.21H7.15v-.21h.12a.64.64,0,0,0,.56-.21A1.54,1.54,0,0,0,8,11.5v-2a8.8,8.8,0,0,0,0-1.2A.51.51,0,0,0,7.8,8a.37.37,0,0,0-.25-.08,1.14,1.14,0,0,0-.4.09l-.09-.21,1.64-.67H9Z"/></svg>