<svg id="Layer_1" data-name="Layer 1" xmlns="http://www.w3.org/2000/svg" viewBox="0 0 17 17"><title>1</title><path d="M10.3,6.25a4.2,4.2,0,0,0,1.06.15,2.55,2.55,0,0,0,1.94-.85A3.76,3.76,0,0,0,14.15,3h-.59a2.19,2.19,0,0,1-.6,1.4,1.71,1.71,0,0,1-1.24.49A2.6,2.6,0,0,1,11,4.85l-.29-.09L11.94,1h-1L9.87,4.42l-.34-.15a26.89,26.89,0,0,0-2.9-1.09A4.07,4.07,0,0,0,5.55,3a2.43,2.43,0,0,0-1.85.83,3.92,3.92,0,0,0-.85,2.53h.6A2.47,2.47,0,0,1,4.1,5a1.68,1.68,0,0,1,1.18-.43,6.66,6.66,0,0,1,2.19.63c.8.34,1.44.59,1.92.78L8.87,7.59H3.1V9.15H8.38l-.73,2.31H3.1V13H7.16l-.94,3h1l.94-3H13.9V11.45H8.66l.72-2.31H13.9V7.59h-4Z"/></svg>