<svg id="Layer_1" data-name="Layer 1" xmlns="http://www.w3.org/2000/svg" viewBox="0 0 17 17"><title>_</title><path d="M1,8.57a12.6,12.6,0,0,1,.63-4A10,10,0,0,1,3.45,1.24H4.76A11.47,11.47,0,0,0,3,4.69a12.83,12.83,0,0,0-.59,3.86A12.32,12.32,0,0,0,3,12.36a11.83,11.83,0,0,0,1.73,3.4H3.45a9.58,9.58,0,0,1-1.82-3.23A12.27,12.27,0,0,1,1,8.57Z"/><path d="M16,8.57a12.26,12.26,0,0,1-.63,4,9.54,9.54,0,0,1-1.82,3.21h-1.3A11.71,11.71,0,0,0,14,12.37a12.36,12.36,0,0,0,.6-3.82A12.82,12.82,0,0,0,14,4.69a11.46,11.46,0,0,0-1.76-3.45h1.32a10,10,0,0,1,1.82,3.31A12.66,12.66,0,0,1,16,8.57Z"/><path d="M11.34,12.76H5.66V4.24h5.69Zm-5-.73h4.22V5H6.39Z"/></svg>