<svg id="Layer_1" data-name="Layer 1" xmlns="http://www.w3.org/2000/svg" viewBox="0 0 17 17"><title>1</title><path d="M6,8.18V9.71H5.85a2,2,0,0,0-.47-1,1.09,1.09,0,0,0-.74-.26.84.84,0,0,0-.56.18.52.52,0,0,0-.21.4A.76.76,0,0,0,4,9.52a1.67,1.67,0,0,0,.62.42l.71.35a1.45,1.45,0,0,1,1,1.28,1.2,1.2,0,0,1-.46,1,1.59,1.59,0,0,1-1,.37,3.82,3.82,0,0,1-.94-.14.78.78,0,0,0-.27,0,.19.19,0,0,0-.17.12H3.32V11.26h.16a1.81,1.81,0,0,0,.52,1,1.29,1.29,0,0,0,.87.35.77.77,0,0,0,.54-.2A.61.61,0,0,0,5.63,12a.78.78,0,0,0-.24-.57,4.53,4.53,0,0,0-.94-.58,2.59,2.59,0,0,1-.93-.63,1.09,1.09,0,0,1-.22-.7,1.23,1.23,0,0,1,.38-.93,1.37,1.37,0,0,1,1-.37,2.59,2.59,0,0,1,.64.11,1.45,1.45,0,0,0,.33.08.16.16,0,0,0,.12,0,.42.42,0,0,0,.1-.15Z"/><path d="M8.27,8.18v3.6a1.71,1.71,0,0,0,.06.56.39.39,0,0,0,.18.2.9.9,0,0,0,.44.07v.18H6.77v-.18a1,1,0,0,0,.44-.06.42.42,0,0,0,.18-.21,1.68,1.68,0,0,0,.07-.56V10.05a5.72,5.72,0,0,0,0-.94.45.45,0,0,0-.1-.22.33.33,0,0,0-.21-.06,1.22,1.22,0,0,0-.33.07L6.7,8.73l1.35-.55ZM7.86,5.84A.47.47,0,0,1,8.21,6a.45.45,0,0,1,.14.35.47.47,0,0,1-.14.35.51.51,0,0,1-.7,0,.49.49,0,0,1-.15-.35.51.51,0,0,1,.5-.5Z"/><path d="M10.81,9.13a2.11,2.11,0,0,1,1.5-1,1.05,1.05,0,0,1,.62.18,1.23,1.23,0,0,1,.42.61,2.53,2.53,0,0,1,.11.9v1.91a1.7,1.7,0,0,0,.07.57.39.39,0,0,0,.17.19.94.94,0,0,0,.45.07v.18H11.93v-.18H12a.74.74,0,0,0,.43-.09.54.54,0,0,0,.18-.29,3.08,3.08,0,0,0,0-.45V9.94a1.91,1.91,0,0,0-.16-.88A.57.57,0,0,0,12,8.78a1.59,1.59,0,0,0-1.15.64v2.36a1.6,1.6,0,0,0,0,.56.46.46,0,0,0,.19.2,1,1,0,0,0,.48.07v.18H9.32v-.18h.1a.53.53,0,0,0,.46-.17,1.28,1.28,0,0,0,.12-.66V10.12a6.28,6.28,0,0,0,0-1,.45.45,0,0,0-.11-.24.32.32,0,0,0-.2-.06,1.22,1.22,0,0,0-.33.07l-.07-.17,1.35-.55h.21Z"/></svg>