<svg id="Layer_1" data-name="Layer 1" xmlns="http://www.w3.org/2000/svg" viewBox="0 0 17 17"><title>1</title><path d="M4.17,8.18V9.71H4a2.06,2.06,0,0,0-.48-1,1.08,1.08,0,0,0-.74-.26.81.81,0,0,0-.55.18.52.52,0,0,0-.21.4.71.71,0,0,0,.16.47,1.62,1.62,0,0,0,.61.42l.71.35a1.46,1.46,0,0,1,1,1.28,1.21,1.21,0,0,1-.47,1,1.57,1.57,0,0,1-1,.37,4,4,0,0,1-.94-.14.69.69,0,0,0-.26,0,.21.21,0,0,0-.18.12H1.47V11.26h.16a1.88,1.88,0,0,0,.53,1,1.24,1.24,0,0,0,.86.35.77.77,0,0,0,.55-.2A.63.63,0,0,0,3.78,12a.81.81,0,0,0-.23-.57,4.68,4.68,0,0,0-.95-.58,2.8,2.8,0,0,1-.93-.63,1.15,1.15,0,0,1-.22-.7,1.27,1.27,0,0,1,.38-.93,1.37,1.37,0,0,1,1-.37,2.45,2.45,0,0,1,.64.11,1.74,1.74,0,0,0,.33.08.15.15,0,0,0,.12,0A.41.41,0,0,0,4,8.18Z"/><path d="M6.42,8.18v3.6a1.71,1.71,0,0,0,.06.56.39.39,0,0,0,.18.2.92.92,0,0,0,.44.07v.18H4.93v-.18a1.08,1.08,0,0,0,.44-.06.54.54,0,0,0,.18-.21,1.75,1.75,0,0,0,.06-.56V10.05a6.17,6.17,0,0,0,0-.94.45.45,0,0,0-.11-.22.32.32,0,0,0-.2-.06,1.22,1.22,0,0,0-.33.07l-.07-.17,1.35-.55ZM6,5.84a.5.5,0,0,1,.49.5.52.52,0,0,1-.14.35A.47.47,0,0,1,6,6.83a.45.45,0,0,1-.35-.14.5.5,0,0,1,0-.7A.49.49,0,0,1,6,5.84Z"/><path d="M9,9.13a2.14,2.14,0,0,1,1.5-1,1.11,1.11,0,0,1,.63.18,1.23,1.23,0,0,1,.42.61,2.78,2.78,0,0,1,.11.9v1.91a1.47,1.47,0,0,0,.07.57.35.35,0,0,0,.17.19.92.92,0,0,0,.44.07v.18H10.09v-.18h.09a.78.78,0,0,0,.44-.09.52.52,0,0,0,.17-.29,2,2,0,0,0,0-.45V9.94a1.79,1.79,0,0,0-.16-.88.55.55,0,0,0-.53-.28A1.6,1.6,0,0,0,9,9.42v2.36a1.91,1.91,0,0,0,0,.56.46.46,0,0,0,.19.2,1.06,1.06,0,0,0,.49.07v.18H7.48v-.18h.09A.56.56,0,0,0,8,12.44a1.28,1.28,0,0,0,.12-.66V10.12a8,8,0,0,0,0-1A.54.54,0,0,0,8,8.89a.33.33,0,0,0-.21-.06,1.09,1.09,0,0,0-.32.07L7.4,8.73l1.35-.55H9Z"/><path d="M12.58,7.93h1.47v.43H12.58Z"/><path d="M14.39,6l.94-.46h.09V8.78a1.54,1.54,0,0,0,0,.4.21.21,0,0,0,.11.12.85.85,0,0,0,.35,0v.11H14.45V9.35a.87.87,0,0,0,.36,0,.2.2,0,0,0,.11-.11,1.48,1.48,0,0,0,0-.41V6.69a2.91,2.91,0,0,0,0-.54A.23.23,0,0,0,14.85,6a.2.2,0,0,0-.13,0,.67.67,0,0,0-.29.08Z"/></svg>