<svg id="Layer_1" data-name="Layer 1" xmlns="http://www.w3.org/2000/svg" viewBox="0 0 17 17"><title>_</title><path d="M8.5,16a3.93,3.93,0,0,1-2.34-.83A5.43,5.43,0,0,1,4.37,12.7a11.06,11.06,0,0,1-.65-4.05A9.82,9.82,0,0,1,5.09,2.91,4.08,4.08,0,0,1,8.5,1a4.07,4.07,0,0,1,3.41,1.92,9.86,9.86,0,0,1,1.37,5.72,11,11,0,0,1-.65,4.06,5.49,5.49,0,0,1-1.78,2.46A3.91,3.91,0,0,1,8.5,16ZM6.84,8.06h3.33v-.7A14.08,14.08,0,0,0,9.7,2.73q-.47-1-1.21-1T7.29,2.76a14.58,14.58,0,0,0-.45,4.6Zm0,.76v.72q0,3.93.48,4.84a1.4,1.4,0,0,0,1.2.91,1.15,1.15,0,0,0,.85-.44A3,3,0,0,0,10,13.41a24.49,24.49,0,0,0,.2-3.86V8.82Z"/></svg>