<svg id="Layer_1" data-name="Layer 1" xmlns="http://www.w3.org/2000/svg" viewBox="0 0 17 17"><title>1</title><path d="M2.18,6.85V8.31h1v.35h-1v2.9a1,1,0,0,0,.12.58.41.41,0,0,0,.32.15.52.52,0,0,0,.31-.1.58.58,0,0,0,.24-.29h.19a1.55,1.55,0,0,1-.48.72,1.07,1.07,0,0,1-.65.24.91.91,0,0,1-.44-.12.86.86,0,0,1-.32-.36,2,2,0,0,1-.1-.72v-3H.66V8.5a2,2,0,0,0,.55-.37,2.51,2.51,0,0,0,.5-.61A5.49,5.49,0,0,0,2,6.85Z"/><path d="M6.15,12.14a8.67,8.67,0,0,1-.86.62,1.38,1.38,0,0,1-.56.12A1,1,0,0,1,4,12.56a1.16,1.16,0,0,1-.3-.83,1.05,1.05,0,0,1,.15-.57,1.85,1.85,0,0,1,.69-.62,10.2,10.2,0,0,1,1.65-.72V9.65a1.48,1.48,0,0,0-.21-.92.76.76,0,0,0-.62-.25.71.71,0,0,0-.49.17A.49.49,0,0,0,4.65,9v.28a.48.48,0,0,1-.12.35.38.38,0,0,1-.3.12A.35.35,0,0,1,4,9.65a.47.47,0,0,1-.12-.34,1,1,0,0,1,.43-.78,1.89,1.89,0,0,1,1.21-.35,2.12,2.12,0,0,1,1,.2.88.88,0,0,1,.43.48A2.59,2.59,0,0,1,7,9.72v1.51c0,.43,0,.69,0,.79a.34.34,0,0,0,.08.19.21.21,0,0,0,.13,0,.32.32,0,0,0,.14,0,4.08,4.08,0,0,0,.39-.36v.27c-.36.49-.71.74-1,.74a.47.47,0,0,1-.38-.17A.85.85,0,0,1,6.15,12.14Zm0-.31V10.12c-.49.2-.81.34-1,.42a1.53,1.53,0,0,0-.55.45.85.85,0,0,0-.17.51.83.83,0,0,0,.21.58.61.61,0,0,0,.48.23A1.77,1.77,0,0,0,6.15,11.83Z"/><path d="M9.36,9.13a2.11,2.11,0,0,1,1.5-1,1,1,0,0,1,.63.19,1.28,1.28,0,0,1,.42.6,2.78,2.78,0,0,1,.11.9v1.91a1.78,1.78,0,0,0,.06.57.41.41,0,0,0,.18.19.9.9,0,0,0,.44.07v.18H10.49v-.18h.09a.8.8,0,0,0,.44-.09.53.53,0,0,0,.17-.28,3.39,3.39,0,0,0,0-.46V10a1.81,1.81,0,0,0-.16-.89.56.56,0,0,0-.53-.28,1.62,1.62,0,0,0-1.16.64v2.36a1.91,1.91,0,0,0,.05.56.55.55,0,0,0,.19.21,1.28,1.28,0,0,0,.49.06v.18H7.88v-.18H8a.53.53,0,0,0,.46-.17,1.28,1.28,0,0,0,.12-.66V10.12a8.63,8.63,0,0,0,0-1A.39.39,0,0,0,8.4,8.9a.26.26,0,0,0-.2-.07.88.88,0,0,0-.32.08L7.8,8.73l1.35-.55h.21Z"/><path d="M13,7.93h1.47v.43H13Z"/><path d="M14.78,6l.94-.46h.1V8.78a1.54,1.54,0,0,0,0,.4A.18.18,0,0,0,16,9.3a.79.79,0,0,0,.34,0v.11H14.85V9.35a1.2,1.2,0,0,0,.36,0,.25.25,0,0,0,.11-.12,1.48,1.48,0,0,0,0-.41V6.69a2.91,2.91,0,0,0,0-.54A.23.23,0,0,0,15.25,6a.2.2,0,0,0-.13,0,.85.85,0,0,0-.29.08Z"/></svg>