<svg id="Layer_1" data-name="Layer 1" xmlns="http://www.w3.org/2000/svg" viewBox="0 0 17 17"><title>1</title><path d="M4,6.85V8.31H5.07v.35H4v2.9a.9.9,0,0,0,.13.58.39.39,0,0,0,.32.15.54.54,0,0,0,.31-.1A.57.57,0,0,0,5,11.9H5.2a1.48,1.48,0,0,1-.48.72,1,1,0,0,1-.64.24.88.88,0,0,1-.44-.12.79.79,0,0,1-.32-.36,1.83,1.83,0,0,1-.1-.72v-3H2.51V8.5a2.12,2.12,0,0,0,.55-.37,2.77,2.77,0,0,0,.5-.61,5.89,5.89,0,0,0,.31-.67Z"/><path d="M8,12.14a7.3,7.3,0,0,1-.87.62,1.31,1.31,0,0,1-.56.12,1,1,0,0,1-.76-.32,1.16,1.16,0,0,1-.3-.83,1.15,1.15,0,0,1,.14-.57,2,2,0,0,1,.7-.62A10.2,10.2,0,0,1,8,9.82V9.65a1.41,1.41,0,0,0-.22-.92.74.74,0,0,0-.61-.25.69.69,0,0,0-.49.17A.47.47,0,0,0,6.49,9v.28a.52.52,0,0,1-.11.35.41.41,0,0,1-.3.12.38.38,0,0,1-.3-.13.51.51,0,0,1-.11-.34,1,1,0,0,1,.43-.78,1.86,1.86,0,0,1,1.2-.35,2.13,2.13,0,0,1,1,.2.91.91,0,0,1,.42.48,2.59,2.59,0,0,1,.09.86v1.51a5.79,5.79,0,0,0,0,.79.28.28,0,0,0,.08.19.19.19,0,0,0,.13,0,.28.28,0,0,0,.13,0,5.25,5.25,0,0,0,.4-.36v.27c-.37.49-.71.74-1.05.74a.49.49,0,0,1-.38-.17A.91.91,0,0,1,8,12.14Zm0-.31V10.12c-.5.2-.81.34-1,.42a1.62,1.62,0,0,0-.55.45.84.84,0,0,0-.16.51.83.83,0,0,0,.21.58.61.61,0,0,0,.48.23A1.8,1.8,0,0,0,8,11.83Z"/><path d="M11.2,9.13a2.14,2.14,0,0,1,1.5-1,1,1,0,0,1,.63.19,1.16,1.16,0,0,1,.42.6,2.53,2.53,0,0,1,.11.9v1.91a1.47,1.47,0,0,0,.07.57.35.35,0,0,0,.17.19.92.92,0,0,0,.44.07v.18H12.33v-.18h.1a.76.76,0,0,0,.43-.09.55.55,0,0,0,.18-.28,3.39,3.39,0,0,0,0-.46V10a1.93,1.93,0,0,0-.16-.89.59.59,0,0,0-.54-.28,1.64,1.64,0,0,0-1.16.64v2.36a1.51,1.51,0,0,0,.06.56.48.48,0,0,0,.19.21,1.25,1.25,0,0,0,.48.06v.18H9.72v-.18h.1a.53.53,0,0,0,.46-.17,1.28,1.28,0,0,0,.12-.66V10.12a6,6,0,0,0,0-1,.38.38,0,0,0-.11-.24.27.27,0,0,0-.2-.07,1,1,0,0,0-.33.08l-.07-.18L11,8.18h.21Z"/></svg>