<svg id="Layer_1" data-name="Layer 1" xmlns="http://www.w3.org/2000/svg" viewBox="0 0 17 17"><title>Icons</title><path d="M9.19,13.16l0,.08a.24.24,0,0,1,0,.1.24.24,0,0,1,0,.1l0,.08L8.12,14.6l-.08,0-.1,0-.1,0-.08,0L1.85,8.69l0-.08a.25.25,0,0,1,0-.19l0-.08L7.77,2.42l.08-.06.1,0,.1,0,.08.06,1,1.06a.27.27,0,0,1,.06.08.24.24,0,0,1,0,.1.24.24,0,0,1,0,.1.26.26,0,0,1-.06.08L4.51,8.51Z"/><path d="M15.15,13.16l0,.08a.24.24,0,0,1,0,.1.24.24,0,0,1,0,.1l0,.08L14.08,14.6l-.08,0-.1,0-.1,0-.08,0L7.81,8.69l0-.08a.25.25,0,0,1,0-.19l0-.08,5.92-5.91.08-.06.1,0,.1,0,.08.06,1,1.06a.27.27,0,0,1,.06.08.24.24,0,0,1,0,.1.24.24,0,0,1,0,.1.26.26,0,0,1-.06.08L10.47,8.51Z"/></svg>