<svg id="Layer_1" data-name="Layer 1" xmlns="http://www.w3.org/2000/svg" viewBox="0 0 17 17"><title>Icons</title><path d="M16.42,14.83H.58V2.17H16.42Zm-14.84-2H15.42V4.17H1.58Z"/><path d="M8.5,4.89A3.61,3.61,0,1,0,12.11,8.5,3.61,3.61,0,0,0,8.5,4.89Zm.26,2.79.8-.06,0,.62H8.76Zm0-.51V5.43a3.11,3.11,0,0,1,.44.06,11.22,11.22,0,0,1,.31,1.62Zm-.52,0c-.29,0-.58,0-.84,0a10.85,10.85,0,0,1,.31-1.61,4.51,4.51,0,0,1,.53-.09Zm0,.52v.55H7.33q0-.28,0-.6A8,8,0,0,0,8.24,7.69Zm-1.43.55H5.43a3.29,3.29,0,0,1,.2-.89c.27.07.69.16,1.21.24C6.83,7.81,6.81,8,6.81,8.24Zm0,.52c0,.24,0,.46,0,.68a10.4,10.4,0,0,0-1.19.26,3.23,3.23,0,0,1-.22-.94Zm.52,0h.91v.55c-.31,0-.61,0-.88.06A5.93,5.93,0,0,1,7.33,8.76Zm.91,1.07v1.74a3.45,3.45,0,0,1-.56-.1A13.54,13.54,0,0,1,7.4,9.89Q7.79,9.84,8.24,9.83Zm.52,0c.24,0,.49,0,.75,0a9.72,9.72,0,0,1-.29,1.63,2.32,2.32,0,0,1-.46.07Zm0-.51V8.76h.82c0,.2,0,.4,0,.59C9.28,9.33,9,9.31,8.76,9.31Zm1.34-.55h1.47a3.09,3.09,0,0,1-.21.92,8.93,8.93,0,0,0-1.29-.26Q10.1,9.11,10.1,8.76Zm0-.52q0-.33,0-.69a8.69,8.69,0,0,0,1.26-.28,2.88,2.88,0,0,1,.24,1Zm1-1.44A7,7,0,0,1,10,7a11.65,11.65,0,0,0-.24-1.35A3.11,3.11,0,0,1,11.08,6.8Zm-4-1.06c-.1.46-.18.9-.23,1.33-.42-.06-.77-.13-1-.19A3.09,3.09,0,0,1,7.12,5.74ZM5.9,10.17a8.75,8.75,0,0,1,1-.21c.06.52.14,1,.21,1.28A3.1,3.1,0,0,1,5.9,10.17ZM9.8,11.3A10.66,10.66,0,0,0,10,9.93a9,9,0,0,1,1.08.22A3.17,3.17,0,0,1,9.8,11.3Z"/></svg>