<svg id="Layer_1" data-name="Layer 1" xmlns="http://www.w3.org/2000/svg" viewBox="0 0 17 17"><title>Icons</title><path d="M2.91,8.36a10.38,10.38,0,0,1,1.78-.79V7.15a1.61,1.61,0,0,0-.1-.69.7.7,0,0,0-.68-.32.94.94,0,0,0-.47.12.41.41,0,0,0-.23.36,1.06,1.06,0,0,0,0,.2c0,.09,0,.15,0,.18a.41.41,0,0,1-.18.38.48.48,0,0,1-.24.06A.43.43,0,0,1,2.5,7.3.48.48,0,0,1,2.39,7a1,1,0,0,1,.42-.71A1.79,1.79,0,0,1,4,5.9a1.33,1.33,0,0,1,1.28.61,2.11,2.11,0,0,1,.18,1V9.44a1.13,1.13,0,0,0,0,.38A.25.25,0,0,0,5.8,10,.45.45,0,0,0,6,10a1.5,1.5,0,0,0,.26-.17v.26a2,2,0,0,1-.34.31,1,1,0,0,1-.55.18.55.55,0,0,1-.48-.21.94.94,0,0,1-.17-.51,4.8,4.8,0,0,1-.63.48,1.67,1.67,0,0,1-.84.26,1,1,0,0,1-.72-.3,1,1,0,0,1-.31-.74A1.4,1.4,0,0,1,2.91,8.36Zm1.78-.55a4.2,4.2,0,0,0-.92.41,1.2,1.2,0,0,0-.7,1,.73.73,0,0,0,.29.65.71.71,0,0,0,.42.14,1.17,1.17,0,0,0,.62-.18.53.53,0,0,0,.29-.46Z"/><path d="M5.85,4.32V4.15a7.12,7.12,0,0,0,1-.28l.48-.15a.13.13,0,0,1,0,.06v3a1.43,1.43,0,0,1,.38-.45,1.6,1.6,0,0,1,1-.36,1.56,1.56,0,0,1,1.22.6,2.4,2.4,0,0,1,.5,1.57,2.57,2.57,0,0,1-.65,1.76,2.22,2.22,0,0,1-1.73.74A2.65,2.65,0,0,1,7,10.38c-.35-.14-.52-.28-.52-.42V4.82a.82.82,0,0,0-.08-.41c0-.07-.17-.11-.36-.11ZM7.7,10.15a1.77,1.77,0,0,0,.59.11,1.1,1.1,0,0,0,1-.51,2.22,2.22,0,0,0,.33-1.23,3,3,0,0,0-.3-1.34,1,1,0,0,0-1-.61,1.26,1.26,0,0,0-.68.21.63.63,0,0,0-.32.53V9.79C7.35,10,7.48,10.08,7.7,10.15Z"/><path d="M14.05,6.23a.88.88,0,0,1,.44.69.53.53,0,0,1-.11.3.5.5,0,0,1-.65,0,.73.73,0,0,1-.18-.34l-.06-.24a.59.59,0,0,0-.22-.36.77.77,0,0,0-.42-.1,1.17,1.17,0,0,0-.94.48A2,2,0,0,0,11.53,8,2.21,2.21,0,0,0,12,9.29a1.33,1.33,0,0,0,1.14.58,1.39,1.39,0,0,0,.9-.33,3.91,3.91,0,0,0,.5-.6l.14.08a3.66,3.66,0,0,1-.59.92,1.77,1.77,0,0,1-1.36.66,1.83,1.83,0,0,1-1.34-.6,2.22,2.22,0,0,1-.58-1.62,2.57,2.57,0,0,1,.63-1.74A2.06,2.06,0,0,1,13,5.92,1.74,1.74,0,0,1,14.05,6.23Z"/><rect x="8.11" y="12.28" width="1" height="1"/><rect x="13.8" y="12.28" width="1" height="1"/><rect x="10.96" y="12.28" width="1" height="1"/><rect x="5.27" y="12.28" width="1" height="1"/><rect x="2.42" y="12.28" width="1" height="1"/></svg>