<svg id="Layer_1" data-name="Layer 1" xmlns="http://www.w3.org/2000/svg" viewBox="0 0 17 17"><title>Icons</title><path d="M6.53,8.5,1.85,3.83l0-.08a.25.25,0,0,1,0-.1.25.25,0,0,1,0-.1l0-.08L2.91,2.41,3,2.35l.1,0,.1,0,.08.06L9.18,8.32a.16.16,0,0,1,.06.07.24.24,0,0,1,0,.1.29.29,0,0,1,0,.1.15.15,0,0,1-.06.08L3.27,14.59l-.08.06-.1,0-.1,0-.08-.06L1.85,13.52l0-.08a.25.25,0,0,1,0-.1.25.25,0,0,1,0-.1l0-.08Z"/><path d="M12.49,8.5,7.81,3.83l0-.08a.25.25,0,0,1,0-.1.25.25,0,0,1,0-.1l0-.08L8.87,2.41,9,2.35l.1,0,.1,0,.08.06,5.91,5.91a.16.16,0,0,1,.06.07.24.24,0,0,1,0,.1.29.29,0,0,1,0,.1.15.15,0,0,1-.06.08L9.23,14.59l-.08.06-.1,0-.1,0-.08-.06L7.81,13.52l0-.08a.25.25,0,0,1,0-.1.25.25,0,0,1,0-.1l0-.08Z"/></svg>