<svg id="Layer_1" data-name="Layer 1" xmlns="http://www.w3.org/2000/svg" viewBox="0 0 17 17"><title>Icons</title><polygon points="14.12 6.2 13.55 6.77 14.88 8.1 11.44 8.1 11.44 6.84 11.04 6.84 11.04 8.1 8.9 8.1 8.9 6.84 8.1 6.84 8.1 8.1 5.96 8.1 5.96 6.84 5.56 6.84 5.56 8.1 2.12 8.1 3.45 6.77 2.88 6.2 0.59 8.5 2.88 10.8 3.45 10.23 2.12 8.9 5.56 8.9 5.56 10.16 5.96 10.16 5.96 8.9 8.1 8.9 8.1 10.16 8.9 10.16 8.9 8.9 11.04 8.9 11.04 10.16 11.44 10.16 11.44 8.9 14.88 8.9 13.55 10.23 14.12 10.8 16.41 8.5 14.12 6.2"/></svg>