<svg id="Layer_1" data-name="Layer 1" xmlns="http://www.w3.org/2000/svg" viewBox="0 0 17 17"><title>Icons</title><path d="M3,14.07a10.6,10.6,0,0,1,1.79-.79v-.41a1.75,1.75,0,0,0-.1-.69A.69.69,0,0,0,4,11.85a.9.9,0,0,0-.47.13.38.38,0,0,0-.22.36s0,.1,0,.19a1.23,1.23,0,0,1,0,.18.41.41,0,0,1-.18.38.49.49,0,0,1-.25.06A.42.42,0,0,1,2.59,13a.49.49,0,0,1-.12-.32A1,1,0,0,1,2.89,12a1.79,1.79,0,0,1,1.23-.37,1.32,1.32,0,0,1,1.28.61,2.11,2.11,0,0,1,.18,1v2a1.65,1.65,0,0,0,0,.39.25.25,0,0,0,.27.18.48.48,0,0,0,.18,0,2.17,2.17,0,0,0,.25-.16v.25a1.6,1.6,0,0,1-.33.31,1,1,0,0,1-.56.18A.55.55,0,0,1,5,16.06a.94.94,0,0,1-.16-.51,6.65,6.65,0,0,1-.63.48,1.73,1.73,0,0,1-.84.26,1,1,0,0,1-.73-.3,1,1,0,0,1-.3-.74A1.39,1.39,0,0,1,3,14.07Zm1.79-.55a4.85,4.85,0,0,0-.93.41,1.23,1.23,0,0,0-.7,1,.74.74,0,0,0,.29.65.67.67,0,0,0,.43.14,1.14,1.14,0,0,0,.61-.18.53.53,0,0,0,.3-.46Z"/><path d="M5.94,10V9.87a9.33,9.33,0,0,0,1-.29l.48-.15s0,0,0,.06v3A1.38,1.38,0,0,1,7.8,12a1.57,1.57,0,0,1,1-.37,1.53,1.53,0,0,1,1.22.6,2.37,2.37,0,0,1,.51,1.57,2.53,2.53,0,0,1-.66,1.76,2.21,2.21,0,0,1-1.73.74,2.65,2.65,0,0,1-1.06-.22c-.34-.14-.52-.28-.52-.42V10.53a.79.79,0,0,0-.07-.4A.43.43,0,0,0,6.16,10Zm1.85,5.83a1.72,1.72,0,0,0,.58.11,1.11,1.11,0,0,0,1-.51,2.22,2.22,0,0,0,.33-1.23,3,3,0,0,0-.31-1.34,1,1,0,0,0-1-.61,1.23,1.23,0,0,0-.67.21.62.62,0,0,0-.33.54V15.5A.48.48,0,0,0,7.79,15.86Z"/><path d="M14.14,11.94a.88.88,0,0,1,.44.69.5.5,0,0,1-.11.3.47.47,0,0,1-.65,0,.74.74,0,0,1-.19-.34l-.05-.24a.64.64,0,0,0-.22-.36.78.78,0,0,0-.43-.1,1.14,1.14,0,0,0-.93.48,2,2,0,0,0-.38,1.29A2.21,2.21,0,0,0,12,15a1.32,1.32,0,0,0,1.13.58,1.35,1.35,0,0,0,.9-.33,3.06,3.06,0,0,0,.51-.6l.13.08a3.93,3.93,0,0,1-.58.93,1.77,1.77,0,0,1-2.7.05,2.22,2.22,0,0,1-.59-1.62,2.55,2.55,0,0,1,.64-1.73,2,2,0,0,1,1.61-.73A1.86,1.86,0,0,1,14.14,11.94Z"/><path d="M8.5.5a4.31,4.31,0,1,0,4.31,4.31A4.32,4.32,0,0,0,8.5.5Zm.31,3.33c.3,0,.62,0,.95-.07,0,.25,0,.5,0,.74h-1Zm0-.61V1.15a3.21,3.21,0,0,1,.53.07A14.13,14.13,0,0,1,9.7,3.15C9.4,3.19,9.1,3.21,8.81,3.22Zm-.62,0c-.35,0-.69,0-1-.05a14,14,0,0,1,.36-1.92,3.41,3.41,0,0,1,.64-.1Zm0,.62V4.5H7.1l0-.71C7.46,3.82,7.82,3.84,8.19,3.84ZM6.48,4.5H4.84a3.54,3.54,0,0,1,.24-1.07,11.48,11.48,0,0,0,1.44.29C6.5,4,6.49,4.25,6.48,4.5Zm0,.61c0,.29,0,.56,0,.82a10.7,10.7,0,0,0-1.42.32,3.58,3.58,0,0,1-.26-1.14Zm.62,0H8.19v.67c-.37,0-.73,0-1,.07C7.12,5.62,7.11,5.37,7.1,5.11ZM8.19,6.4V8.47a4.54,4.54,0,0,1-.66-.11,13.43,13.43,0,0,1-.34-1.89C7.5,6.43,7.84,6.41,8.19,6.4Zm.62,0c.29,0,.59,0,.9.05a12.94,12.94,0,0,1-.35,2,3.31,3.31,0,0,1-.55.08Zm0-.62V5.11h1c0,.25,0,.49,0,.72Zm1.61-.66h1.74a3.67,3.67,0,0,1-.25,1.11,13.06,13.06,0,0,0-1.53-.32C10.4,5.65,10.41,5.39,10.42,5.11Zm0-.61c0-.26,0-.54,0-.82a10.92,10.92,0,0,0,1.51-.35,3.58,3.58,0,0,1,.28,1.17Zm1.17-1.72a10.06,10.06,0,0,1-1.27.29A14.5,14.5,0,0,0,10,1.45,3.7,3.7,0,0,1,11.58,2.78ZM6.85,1.52A15.84,15.84,0,0,0,6.58,3.1a12.1,12.1,0,0,1-1.21-.23A3.7,3.7,0,0,1,6.85,1.52ZM5.4,6.8a9.76,9.76,0,0,1,1.18-.25,13.17,13.17,0,0,0,.25,1.53A3.68,3.68,0,0,1,5.4,6.8Zm4.66,1.35a15.91,15.91,0,0,0,.27-1.64,10.46,10.46,0,0,1,1.28.27A3.68,3.68,0,0,1,10.06,8.15Z"/></svg>