<svg id="Layer_1" data-name="Layer 1" xmlns="http://www.w3.org/2000/svg" viewBox="0 0 17 17"><title>Icons</title><path d="M15,1.35H2a1,1,0,0,0-1,1V14.65a1,1,0,0,0,1,1H15a1,1,0,0,0,1-1V2.35A1,1,0,0,0,15,1.35ZM2,14.65V4.43H15V14.65Z"/><path d="M6.47,7.49A9,9,0,0,1,7.55,6.22a1.21,1.21,0,0,1,.79-.37A.67.67,0,0,1,9,6.17a.79.79,0,0,1,.09.4A.62.62,0,0,1,8.88,7a.63.63,0,0,1-.47.2A.76.76,0,0,1,8,7.08a.73.73,0,0,0-.33-.13.56.56,0,0,0-.41.22,10.74,10.74,0,0,0-.68.94l.11.59.15.74c0,.19.08.37.13.54a2,2,0,0,0,.19.49.3.3,0,0,0,.28.15.64.64,0,0,0,.4-.24,5.36,5.36,0,0,0,.39-.47l.25.17a4.64,4.64,0,0,1-.81,1,1.44,1.44,0,0,1-1,.47.8.8,0,0,1-.66-.33,1.61,1.61,0,0,1-.26-.48c0-.11-.09-.29-.16-.56s-.11-.43-.13-.5l-.08.14a9.14,9.14,0,0,1-.85,1.29,1.23,1.23,0,0,1-.94.45.76.76,0,0,1-.53-.21.67.67,0,0,1-.23-.51.74.74,0,0,1,.17-.47.56.56,0,0,1,.47-.21,1.08,1.08,0,0,1,.45.13,1.12,1.12,0,0,0,.35.13.39.39,0,0,0,.31-.16,9,9,0,0,0,.52-.8l.23-.39q-.06-.25-.13-.6l-.14-.73L5,7.22a1.16,1.16,0,0,0-.32-.71.65.65,0,0,0-.4-.1H4.17l-.22,0V6.13L5.1,6l.84-.14a2,2,0,0,1,.29.57,4.19,4.19,0,0,1,.17.71Z"/><path d="M10.75,12.41a1.5,1.5,0,0,0,.4-.94,11.5,11.5,0,0,0-.23-1.65q-.15-.79-.31-1.55a8.35,8.35,0,0,0-.44-1.58.59.59,0,0,0-.56-.25V6.13q.56-.05,1.17-.16l.55-.1h.08q.14.42.43,1.65t.45,2.23l0,.28.22-.38a8.94,8.94,0,0,0,.55-1.12,3,3,0,0,0,.27-.89.43.43,0,0,0-.06-.21.63.63,0,0,0-.19-.2L13,7.15A.85.85,0,0,1,12.86,7a.69.69,0,0,1,.06-.89.64.64,0,0,1,.5-.22.79.79,0,0,1,.5.19.76.76,0,0,1,.24.63,5.75,5.75,0,0,1-.67,2.15A20.53,20.53,0,0,1,12.31,11a11.49,11.49,0,0,1-1.7,2.2,2.26,2.26,0,0,1-1.54.71.74.74,0,0,1-.55-.23.71.71,0,0,1-.22-.51.59.59,0,0,1,.21-.47A.69.69,0,0,1,9,12.48a1.2,1.2,0,0,1,.61.21,1.21,1.21,0,0,0,.46.21Q10.35,12.89,10.75,12.41Z"/></svg>