<svg id="Layer_1" data-name="Layer 1" xmlns="http://www.w3.org/2000/svg" viewBox="0 0 17 17"><title>Icons</title><path d="M3,10.1a10.6,10.6,0,0,1,1.79-.79V8.89a1.78,1.78,0,0,0-.1-.69A.71.71,0,0,0,4,7.88,1,1,0,0,0,3.52,8a.4.4,0,0,0-.22.36s0,.11,0,.2a1.05,1.05,0,0,1,0,.18.41.41,0,0,1-.18.38.49.49,0,0,1-.25.06A.42.42,0,0,1,2.59,9a.49.49,0,0,1-.12-.32A1,1,0,0,1,2.89,8a1.79,1.79,0,0,1,1.23-.37,1.32,1.32,0,0,1,1.28.61,2.11,2.11,0,0,1,.18,1v1.95a1.49,1.49,0,0,0,0,.38.25.25,0,0,0,.26.19.5.5,0,0,0,.19,0,1.55,1.55,0,0,0,.25-.17v.26a1.6,1.6,0,0,1-.33.31,1,1,0,0,1-.56.18A.55.55,0,0,1,5,12.09a.94.94,0,0,1-.16-.51,6.65,6.65,0,0,1-.63.48,1.73,1.73,0,0,1-.84.26,1,1,0,0,1-.73-.3,1,1,0,0,1-.3-.74A1.39,1.39,0,0,1,3,10.1Zm1.79-.55a4.3,4.3,0,0,0-.93.41,1.23,1.23,0,0,0-.7,1,.75.75,0,0,0,.29.65.74.74,0,0,0,.43.14,1.14,1.14,0,0,0,.61-.18.53.53,0,0,0,.3-.46Z"/><path d="M5.94,6.06V5.89a7.52,7.52,0,0,0,1-.28l.48-.15s0,0,0,.06v3A1.53,1.53,0,0,1,7.8,8a1.62,1.62,0,0,1,1-.36,1.53,1.53,0,0,1,1.22.6,2.35,2.35,0,0,1,.51,1.57A2.53,2.53,0,0,1,9.9,11.6a2.21,2.21,0,0,1-1.73.74,2.65,2.65,0,0,1-1.06-.22c-.34-.14-.52-.28-.52-.42V6.56a.84.84,0,0,0-.07-.41A.47.47,0,0,0,6.16,6Zm1.85,5.83a1.72,1.72,0,0,0,.58.11,1.11,1.11,0,0,0,1-.51,2.22,2.22,0,0,0,.33-1.23A3,3,0,0,0,9.4,8.92a1,1,0,0,0-1-.61,1.23,1.23,0,0,0-.67.21.62.62,0,0,0-.33.53v2.48A.48.48,0,0,0,7.79,11.89Z"/><path d="M14.14,8a.88.88,0,0,1,.44.69.53.53,0,0,1-.11.3.5.5,0,0,1-.65,0,.66.66,0,0,1-.19-.34l-.05-.24A.64.64,0,0,0,13.36,8a.78.78,0,0,0-.43-.1,1.14,1.14,0,0,0-.93.48,2,2,0,0,0-.38,1.29A2.21,2.21,0,0,0,12,11a1.32,1.32,0,0,0,1.13.58,1.35,1.35,0,0,0,.9-.33,3.39,3.39,0,0,0,.51-.6l.13.08a3.65,3.65,0,0,1-.58.92,1.78,1.78,0,0,1-1.36.66,1.81,1.81,0,0,1-1.34-.6,2.22,2.22,0,0,1-.59-1.62,2.53,2.53,0,0,1,.64-1.74,2,2,0,0,1,1.61-.72A1.78,1.78,0,0,1,14.14,8Z"/><path d="M16.42,14.23H.58V3.56H16.42Zm-14.84-1H15.42V4.56H1.58Z"/></svg>