<svg id="Layer_1" data-name="Layer 1" xmlns="http://www.w3.org/2000/svg" viewBox="0 0 17 17"><title>Icons</title><path d="M16.42,13.83H.58V3.17H16.42Zm-14.84-1H15.42V4.17H1.58Z"/><path d="M5.85,5.74a2,2,0,0,1,.36.51,7.85,7.85,0,0,1,.29.93l.43-.65a2.83,2.83,0,0,1,.41-.45,2,2,0,0,1,.43-.29.75.75,0,0,1,.26,0,.45.45,0,0,1,.33.12.32.32,0,0,1,.13.27.37.37,0,0,1-.07.25.45.45,0,0,1-.32.13.68.68,0,0,1-.22,0,1.33,1.33,0,0,0-.3-.08.49.49,0,0,0-.28.14,3.78,3.78,0,0,0-.72,1L7,9.18a1.53,1.53,0,0,0,.15.46.19.19,0,0,0,.13.08.42.42,0,0,0,.24-.11A2,2,0,0,0,8,9l.17.09a3.35,3.35,0,0,1-.78,1,.8.8,0,0,1-.46.21A.48.48,0,0,1,6.46,10,11.64,11.64,0,0,1,6,8.33,6.86,6.86,0,0,1,4.81,10a.93.93,0,0,1-.57.24.56.56,0,0,1-.36-.14.4.4,0,0,1,0-.56.35.35,0,0,1,.26-.1.54.54,0,0,1,.34.15.32.32,0,0,0,.19.11.25.25,0,0,0,.15-.07,3.69,3.69,0,0,0,.63-.81c.26-.41.43-.7.52-.88Q5.65,6.8,5.63,6.72a.91.91,0,0,0-.3-.45.86.86,0,0,0-.53-.13H4.54V6Z"/><path d="M10.45,5.74a2,2,0,0,1,.23.54,8.9,8.9,0,0,1,.13,1L11,9.65c.2-.24.48-.61.85-1.12.18-.24.4-.58.66-1a4.41,4.41,0,0,0,.3-.54.51.51,0,0,0,0-.17.09.09,0,0,0,0-.08s-.08-.05-.18-.08a.59.59,0,0,1-.24-.18.45.45,0,0,1-.09-.28.44.44,0,0,1,.12-.32.38.38,0,0,1,.29-.13.49.49,0,0,1,.37.18.75.75,0,0,1,.15.49,1.87,1.87,0,0,1-.27.88,13.07,13.07,0,0,1-1,1.53c-.5.68-1.11,1.42-1.82,2.23A6.08,6.08,0,0,1,9,12.11a1.23,1.23,0,0,1-.61.21.36.36,0,0,1-.26-.11.37.37,0,0,1-.12-.27.47.47,0,0,1,.16-.35.5.5,0,0,1,.34-.15.31.31,0,0,1,.17,0,.39.39,0,0,1,.08.14.45.45,0,0,0,.09.16.08.08,0,0,0,.06,0l.1-.05a3.31,3.31,0,0,0,.62-.53,7.74,7.74,0,0,0,.7-.78l-.28-3.09a2.15,2.15,0,0,0-.2-.94.57.57,0,0,0-.46-.16l-.37,0L9,6.1Z"/></svg>