<svg id="Layer_1" data-name="Layer 1" xmlns="http://www.w3.org/2000/svg" viewBox="0 0 17 17"><path d="M10.69,7.19a.49.49,0,0,0-.42.54V9.06a.16.16,0,0,1,0,.08.12.12,0,0,1,0,.05,2.43,2.43,0,0,0-1.06,1.3.12.12,0,0,1-.12.09H9a.12.12,0,0,1-.08-.15A2.62,2.62,0,0,1,10.05,9V5.1a.49.49,0,0,0-.42-.54.49.49,0,0,0-.42.54V8A.11.11,0,1,1,9,8V4.72a.49.49,0,0,0-.42-.54.49.49,0,0,0-.42.54V7.82a.11.11,0,1,1-.21,0V5.1a.49.49,0,0,0-.42-.54.49.49,0,0,0-.42.54V8.23a.11.11,0,1,1-.21,0V6.13a.49.49,0,0,0-.42-.54A.49.49,0,0,0,6,6.13V9.88S6,9.95,6,10a2.57,2.57,0,0,0,2.53,2.84A2.64,2.64,0,0,0,11.2,10s0-.06,0-.09,0,0,0,0V7.73A.57.57,0,0,0,10.69,7.19Z"/><path d="M8.5.5a8,8,0,1,0,8,8A8,8,0,0,0,8.5.5Zm0,14a6,6,0,1,1,6-6A6,6,0,0,1,8.5,14.52Z"/></svg>