<svg id="Layer_1" data-name="Layer 1" xmlns="http://www.w3.org/2000/svg" viewBox="0 0 17 17"><path d="M8.5.5a8,8,0,1,0,8,8A8,8,0,0,0,8.5.5Zm0,14a6,6,0,1,1,6-6A6,6,0,0,1,8.5,14.52Z"/><rect x="7.37" y="11.33" width="1.51" height="1.51" rx="0.19" ry="0.19"/><path d="M8.5,4.15A2.68,2.68,0,0,0,5.83,6.83h0A.19.19,0,0,0,6,7H7.15a.19.19,0,0,0,.19-.19h0a1.16,1.16,0,0,1,2.32,0A1.52,1.52,0,0,1,8.25,8.12H7.55a.19.19,0,0,0-.19.19v2.43a.19.19,0,0,0,.19.19H8.69a.19.19,0,0,0,.19-.19V9.61a3,3,0,0,0,2.3-2.78A2.68,2.68,0,0,0,8.5,4.15Z"/></svg>