<svg id="Layer_1" data-name="Layer 1" xmlns="http://www.w3.org/2000/svg" viewBox="0 0 17 17"><path d="M15,1.35H2a1,1,0,0,0-1,1V14.65a1,1,0,0,0,1,1H15a1,1,0,0,0,1-1V2.35A1,1,0,0,0,15,1.35Zm0,3.85H12.23V2.43H15ZM2,9H4.86v2.55H2ZM9,5.19V2.43h2.93V5.19Zm2.93.3V8H9V5.49ZM8,5.19H5.16V2.43H8Zm0,.3V8H5.16V5.49ZM4.86,8H2V5.49H4.86Zm.3,1H8v2.55H5.16ZM8,11.85v2.81H5.16V11.85Zm1,0h2.93v2.81H9Zm0-.3V9h2.93v2.55ZM12.23,9H15v2.55H12.23Zm0-1V5.49H15V8ZM4.86,2.43V5.19H2V2.43ZM2,11.85H4.86v2.81H2Zm10.25,2.81V11.85H15v2.81Z"/></svg>