<svg id="Layer_1" data-name="Layer 1" xmlns="http://www.w3.org/2000/svg" viewBox="0 0 17 17"><path d="M8.47,16.51a8.09,8.09,0,1,1,8.09-8.09A8.1,8.1,0,0,1,8.47,16.51Zm0-14.18a6.09,6.09,0,1,0,6.09,6.09A6.1,6.1,0,0,0,8.47,2.33Z"/><path d="M11.06,10.19a2.05,2.05,0,0,1-.77,1.7,3.36,3.36,0,0,1-2.16.62A5.06,5.06,0,0,1,5.88,12V10.46A9.27,9.27,0,0,0,7.25,11a4,4,0,0,0,1,.15,1.45,1.45,0,0,0,.85-.21.73.73,0,0,0,.3-.63.7.7,0,0,0-.13-.42,1.46,1.46,0,0,0-.38-.35,9.86,9.86,0,0,0-1-.54,4.88,4.88,0,0,1-1.09-.66,2.47,2.47,0,0,1-.58-.73A2.09,2.09,0,0,1,6,6.6a2.05,2.05,0,0,1,.71-1.66,3,3,0,0,1,2-.6,4.67,4.67,0,0,1,1.18.15A8.13,8.13,0,0,1,11,4.9l-.54,1.31a8,8,0,0,0-1.05-.36,3.39,3.39,0,0,0-.82-.1A1.08,1.08,0,0,0,7.88,6a.74.74,0,0,0-.26.58.72.72,0,0,0,.1.39,1.14,1.14,0,0,0,.33.32,10.17,10.17,0,0,0,1.07.56,4.25,4.25,0,0,1,1.53,1.07A2.08,2.08,0,0,1,11.06,10.19Z"/></svg>