<svg id="Layer_1" data-name="Layer 1" xmlns="http://www.w3.org/2000/svg" viewBox="0 0 17 17"><path d="M15,1.35H2a1,1,0,0,0-1,1V14.65a1,1,0,0,0,1,1H15a1,1,0,0,0,1-1V2.35A1,1,0,0,0,15,1.35ZM2,14.65V4.43H15V14.65Z"/><path d="M11.32,12.67a.45.45,0,0,1-.47-.34,2.33,2.33,0,0,1-.07-.69V8.16a3.77,3.77,0,0,0-.32-1.74A2.36,2.36,0,0,0,8.18,5.32,3.22,3.22,0,0,0,6,6a1.81,1.81,0,0,0-.75,1.27.88.88,0,0,0,.21.57.73.73,0,0,0,.6.26A.81.81,0,0,0,6.47,8a.72.72,0,0,0,.32-.68,2.5,2.5,0,0,0,0-.32,2.33,2.33,0,0,1,0-.35A.72.72,0,0,1,7.1,6a1.69,1.69,0,0,1,.84-.23,1.24,1.24,0,0,1,1.22.58,3,3,0,0,1,.17,1.23v.74A18.94,18.94,0,0,0,6.16,9.72a2.47,2.47,0,0,0-1.26,2.1,1.77,1.77,0,0,0,.55,1.33,1.8,1.8,0,0,0,1.29.52,3,3,0,0,0,1.5-.47,8.17,8.17,0,0,0,1.13-.85,1.71,1.71,0,0,0,.29.91,1,1,0,0,0,.85.38,1.75,1.75,0,0,0,1-.33,2.82,2.82,0,0,0,.6-.56v-.45a3.36,3.36,0,0,1-.45.3A.78.78,0,0,1,11.32,12.67Zm-2-1.18a.94.94,0,0,1-.52.82,2.07,2.07,0,0,1-1.1.32A1.26,1.26,0,0,1,7,12.38a1.33,1.33,0,0,1-.52-1.16A2.15,2.15,0,0,1,7.69,9.47a8,8,0,0,1,1.65-.73Z"/></svg>