<svg id="Layer_1" data-name="Layer 1" xmlns="http://www.w3.org/2000/svg" viewBox="0 0 17 17"><path d="M14.73,2.14H11a.5.5,0,0,0-.5.5v.6H6.23v-.6a.5.5,0,0,0-.5-.5H2a.5.5,0,0,0-.5.5v2a.5.5,0,0,0,.5.5H5.73a.5.5,0,0,0,.5-.5V4h4.27v.6a.5.5,0,0,0,.5.5h3.73a.5.5,0,0,0,.5-.5v-2A.5.5,0,0,0,14.73,2.14Z"/><path d="M14.73,7.14H11a.5.5,0,0,0-.5.5v.73L8.4,10.55,6.23,8.39V7.64a.5.5,0,0,0-.5-.5H2a.5.5,0,0,0-.5.5v2a.5.5,0,0,0,.5.5H5.73a.5.5,0,0,0,.5-.5V9.52l1.62,1.61-1.62,1.7v-.19a.5.5,0,0,0-.5-.5H2a.5.5,0,0,0-.5.5v2a.5.5,0,0,0,.5.5H5.73a.5.5,0,0,0,.5-.5V14l2.19-2.29,2.08,2.06v.88a.5.5,0,0,0,.5.5h3.73a.5.5,0,0,0,.5-.5v-2a.5.5,0,0,0-.5-.5H11a.5.5,0,0,0-.5.49L9,11.12l1.52-1.59v.12a.5.5,0,0,0,.5.5h3.73a.5.5,0,0,0,.5-.5v-2A.5.5,0,0,0,14.73,7.14Z"/></svg>