<svg id="Layer_1" data-name="Layer 1" xmlns="http://www.w3.org/2000/svg" viewBox="0 0 17 17"><rect x="2.08" y="2.01" width="12.44" height="5.43" rx="0.5" ry="0.5"/><path d="M13,15.09v-.8h1L14,15v.06Zm-1,0h-1v-.8h1Zm-2.05,0h-1v-.8h1Zm-2.05,0h-1v-.8h1Zm-2.05,0h-1v-.8h1Zm-2.05,0h-1v-.8h1Zm-1.28-1h-.8v-1h.8Zm12.44-.18h-.8v-1h.8ZM2.48,12.06h-.8V11h.8Zm12.44-.18h-.8v-1h.8ZM2.48,10h-.8V9.76a.91.91,0,0,1,.88-.9l0,.8a.1.1,0,0,0-.1.1Zm11.64-.18c0-.13,0-.17-.1-.17h-.17v-.8H14a.9.9,0,0,1,.9.9Zm-1.29-.17h-1v-.8h1Zm-2.05,0h-1v-.8h1Zm-2.05,0h-1v-.8h1Zm-2.05,0h-1v-.8h1Zm-2.05,0h-1v-.8h1Z"/></svg>