<?xml version="1.0" encoding="utf-8"?>
<!-- Generator: Adobe Illustrator 22.0.1, SVG Export Plug-In . SVG Version: 6.00 Build 0)  -->
<svg version="1.1" id="Layer_1" xmlns="http://www.w3.org/2000/svg" xmlns:xlink="http://www.w3.org/1999/xlink" x="0px" y="0px"
	 viewBox="0 0 17 17" style="enable-background:new 0 0 17 17;" xml:space="preserve">
<title>Icon</title>
<path d="M11.4,1.2H0.7v14.7h15.5V1.2H11.4z M15.3,2.2v0.7h-3.8V2.2H15.3z M1.7,4.4L4,2.2h1L1.7,5.4V4.4z M1.7,6.8L5.6,3v1L1.7,7.8
	V6.8z M1.7,9.2l3.8-3.8v1l-3.8,3.8V9.2z M1.7,11.6l3.8-3.8v1l-3.8,3.8V11.6z M5.6,13.7l-1.2,1.2h-1l2.2-2.2V13.7z M11.4,10.7h3.8
	v2.4h-3.8V10.7z M11.4,9.7V7.3h3.8v2.4H11.4z M11.4,6.3V3.9h3.8v2.4H11.4z M2.6,2.2L1.7,3V2.2H2.6z M1.7,14l3.8-3.8v1L2,14.8H1.7V14
	z M11.4,14.8v-0.7h3.8v0.7H11.4z"/>
</svg>
