<svg id="Layer_1" data-name="Layer 1" xmlns="http://www.w3.org/2000/svg" viewBox="0 0 17 17"><circle cx="4.1" cy="4.19" r="3.14"/><path d="M4.1,15.95a3.14,3.14,0,1,1,3.14-3.14A3.14,3.14,0,0,1,4.1,15.95Zm0-5.5a2.36,2.36,0,1,0,2.36,2.36A2.37,2.37,0,0,0,4.1,10.44Z"/><path d="M12.9,7.33A3.14,3.14,0,1,1,16,4.19,3.14,3.14,0,0,1,12.9,7.33Zm0-5.5a2.36,2.36,0,1,0,2.36,2.36A2.37,2.37,0,0,0,12.9,1.83Z"/><path d="M12.9,15.95A3.14,3.14,0,1,1,16,12.81,3.14,3.14,0,0,1,12.9,15.95Zm0-5.5a2.36,2.36,0,1,0,2.36,2.36A2.37,2.37,0,0,0,12.9,10.44Z"/></svg>