<svg id="Layer_1" data-name="Layer 1" xmlns="http://www.w3.org/2000/svg" viewBox="0 0 17 17"><title>1</title><path d="M1.31,8.91a12.38,12.38,0,0,1,2.9-1.14v-1a1.41,1.41,0,0,0-.27-.94A1.23,1.23,0,0,0,3,5.49a1.33,1.33,0,0,0-.63.14A.43.43,0,0,0,2.12,6a.46.46,0,0,0,0,.14.47.47,0,0,0,.09.12l.08.1a.87.87,0,0,1,.16.26.77.77,0,0,1,.06.3.77.77,0,0,1-.27.63,1,1,0,0,1-.62.21,1,1,0,0,1-.7-.24.83.83,0,0,1-.29-.7,1.45,1.45,0,0,1,.77-1.3A3.53,3.53,0,0,1,3.32,5a4.06,4.06,0,0,1,2,.47,1.83,1.83,0,0,1,.8,1.74v3.45a.42.42,0,0,0,.08.26.23.23,0,0,0,.18.11.33.33,0,0,0,.15,0,1,1,0,0,0,.21-.17l.21.3a2.35,2.35,0,0,1-.92.68,1.75,1.75,0,0,1-.68.13,1.11,1.11,0,0,1-.92-.37A1.32,1.32,0,0,1,4.21,11a3.31,3.31,0,0,1-1.34.83A2.54,2.54,0,0,1,2,12,1.86,1.86,0,0,1,.89,11.6a1.36,1.36,0,0,1-.51-1.17A1.7,1.7,0,0,1,1.31,8.91Zm2.48,1.83a2,2,0,0,0,.4-.39V8.26a3.14,3.14,0,0,0-1,.44A1.53,1.53,0,0,0,2.46,10a1.06,1.06,0,0,0,.21.71.63.63,0,0,0,.48.24A1.09,1.09,0,0,0,3.79,10.74Z"/><path d="M7.11,7.67h3.26V9.33H7.11Z"/><path d="M10.77,11.79v-.37l3.48-5.74a5.64,5.64,0,0,0-2,.23c-.37.16-.65.6-.85,1.32H11l.1-2h5.43v.36l-3.42,5.78a5.55,5.55,0,0,0,2-.27,2.39,2.39,0,0,0,1.13-1.58h.4l-.23,2.28Z"/></svg>