<svg id="Layer_1" data-name="Layer 1" xmlns="http://www.w3.org/2000/svg" viewBox="0 0 17 17"><polygon points="10.78 0.5 3.03 14.76 6.22 16.5 6.63 15.76 5.55 15.18 5.81 14.71 6.88 15.29 7.6 13.98 5.92 13.07 6.18 12.6 7.85 13.51 8.55 12.22 7.48 11.64 7.73 11.17 8.8 11.76 9.5 10.46 7.83 9.56 8.09 9.09 9.76 10 10.46 8.71 9.38 8.13 9.64 7.66 10.71 8.24 11.41 6.95 9.74 6.04 9.99 5.58 11.66 6.49 12.36 5.2 11.29 4.62 11.55 4.15 12.62 4.73 13.32 3.44 11.65 2.53 11.9 2.07 13.57 2.98 13.97 2.24 10.78 0.5"/></svg>