<svg id="Layer_1" data-name="Layer 1" xmlns="http://www.w3.org/2000/svg" viewBox="0 0 17 17"><defs><style>.cls-1{fill:none;}</style></defs><rect class="cls-1" x="10.5" y="10.37" width="2.28" height="2.25" rx="0.5" ry="0.5"/><rect class="cls-1" x="7.36" y="10.37" width="2.28" height="2.25" rx="0.5" ry="0.5"/><rect class="cls-1" x="4.21" y="10.37" width="2.28" height="2.25" rx="0.5" ry="0.5"/><rect class="cls-1" x="4.21" y="1.31" width="8.58" height="8.24" rx="0.5" ry="0.5"/><rect class="cls-1" x="4.21" y="13.44" width="2.28" height="2.25" rx="0.5" ry="0.5"/><polygon points="8.78 5.09 8.78 2.25 8.22 2.25 8.22 5.09 5.37 5.09 5.37 5.65 8.22 5.65 8.22 8.5 8.78 8.5 8.78 5.65 11.63 5.65 11.63 5.09 8.78 5.09"/><path d="M13.12.5H3.88a.5.5,0,0,0-.5.5V16a.5.5,0,0,0,.5.5h9.25a.5.5,0,0,0,.5-.5V1A.5.5,0,0,0,13.12.5Zm-.59,8.55a.25.25,0,0,1-.25.25H4.71a.25.25,0,0,1-.25-.25V1.81a.25.25,0,0,1,.25-.25h7.58a.25.25,0,0,1,.25.25ZM6.25,15.19a.25.25,0,0,1-.25.25H4.71a.25.25,0,0,1-.25-.25V13.94a.25.25,0,0,1,.25-.25H6a.25.25,0,0,1,.25.25Zm0-3.07a.25.25,0,0,1-.25.25H4.71a.25.25,0,0,1-.25-.25V10.87a.25.25,0,0,1,.25-.25H6a.25.25,0,0,1,.25.25Zm1.36-1.25a.25.25,0,0,1,.25-.25H9.14a.25.25,0,0,1,.25.25v1.25a.25.25,0,0,1-.25.25H7.86a.25.25,0,0,1-.25-.25ZM9.4,15.19a.25.25,0,0,1-.25.25H7.87a.25.25,0,0,1-.25-.25V13.94a.25.25,0,0,1,.25-.25H9.15a.25.25,0,0,1,.25.25Zm1.35-4.32a.25.25,0,0,1,.25-.25h1.28a.25.25,0,0,1,.25.25v1.25a.25.25,0,0,1-.25.25H11a.25.25,0,0,1-.25-.25Zm1.79,4.32a.25.25,0,0,1-.25.25H11a.25.25,0,0,1-.25-.25V13.94a.25.25,0,0,1,.25-.25H12.3a.25.25,0,0,1,.25.25Z"/></svg>