<svg id="Layer_1" data-name="Layer 1" xmlns="http://www.w3.org/2000/svg" viewBox="0 0 17 17"><title>1</title><path d="M15.63.5H1.37a.5.5,0,0,0-.5.5V16a.5.5,0,0,0,.5.5H15.63a.5.5,0,0,0,.5-.5V1A.5.5,0,0,0,15.63.5ZM3.74,15.19a.25.25,0,0,1-.25.25H2.21A.25.25,0,0,1,2,15.19V13.94a.25.25,0,0,1,.25-.25H3.49a.25.25,0,0,1,.25.25Zm0-3a.25.25,0,0,1-.25.25H2.21A.25.25,0,0,1,2,12.16V10.91a.25.25,0,0,1,.25-.25H3.49a.25.25,0,0,1,.25.25Zm0-3a.25.25,0,0,1-.25.25H2.21A.25.25,0,0,1,2,9.13V7.88a.25.25,0,0,1,.25-.25H3.49a.25.25,0,0,1,.25.25Zm0-3a.25.25,0,0,1-.25.25H2.21A.25.25,0,0,1,2,6.09V4.84a.25.25,0,0,1,.25-.25H3.49a.25.25,0,0,1,.25.25Zm2.82,9.13a.25.25,0,0,1-.25.25H5a.25.25,0,0,1-.25-.25V14A.25.25,0,0,1,5,13.73H6.31a.25.25,0,0,1,.25.25Zm0-3a.25.25,0,0,1-.25.25H5a.25.25,0,0,1-.25-.25V10.94A.25.25,0,0,1,5,10.69H6.31a.25.25,0,0,1,.25.25Zm0-3a.25.25,0,0,1-.25.25H5a.25.25,0,0,1-.25-.25V7.91A.25.25,0,0,1,5,7.66H6.31a.25.25,0,0,1,.25.25Zm0-3.06a.25.25,0,0,1-.25.25H5a.25.25,0,0,1-.25-.25V4.85A.25.25,0,0,1,5,4.6H6.31a.25.25,0,0,1,.25.25Zm2.82,0a.25.25,0,0,1-.25.25H7.85A.25.25,0,0,1,7.6,6.1V4.85a.25.25,0,0,1,.25-.25H9.13a.25.25,0,0,1,.25.25Zm0,1.81V9.16a.25.25,0,0,1-.25.25H7.86a.25.25,0,0,1-.25-.25V7.91a.25.25,0,0,1,.25-.25H9.14A.25.25,0,0,1,9.39,7.91Zm0,7.31a.25.25,0,0,1-.25.25H7.86a.25.25,0,0,1-.25-.25V14a.25.25,0,0,1,.25-.25H9.14a.25.25,0,0,1,.25.25Zm0-3a.25.25,0,0,1-.25.25H7.86a.25.25,0,0,1-.25-.25V10.94a.25.25,0,0,1,.25-.25H9.15a.25.25,0,0,1,.25.25Zm1.28-4.55H12a.25.25,0,0,1,.25.25V9.14a.25.25,0,0,1-.25.25H10.68a.25.25,0,0,1-.25-.25V7.89A.25.25,0,0,1,10.68,7.64Zm-.25-1.53V4.86a.25.25,0,0,1,.25-.25H12a.25.25,0,0,1,.25.25V6.11a.25.25,0,0,1-.25.25H10.68A.25.25,0,0,1,10.43,6.11Zm.25,4.56H12a.25.25,0,0,1,.25.25v1.25a.25.25,0,0,1-.25.25H10.68a.25.25,0,0,1-.25-.25V10.93A.25.25,0,0,1,10.68,10.68ZM15,15.19a.24.24,0,0,1-.23.25H10.66a.24.24,0,0,1-.23-.25V13.94a.24.24,0,0,1,.23-.25h4.14a.24.24,0,0,1,.23.25Zm0-3a.25.25,0,0,1-.25.25H13.51a.25.25,0,0,1-.25-.25V10.91a.25.25,0,0,1,.25-.25h1.28a.25.25,0,0,1,.25.25Zm0-3a.25.25,0,0,1-.25.25H13.51a.25.25,0,0,1-.25-.25V7.88a.25.25,0,0,1,.25-.25h1.28a.25.25,0,0,1,.25.25Zm0-3a.25.25,0,0,1-.25.25H13.51a.25.25,0,0,1-.25-.25V4.84a.25.25,0,0,1,.25-.25h1.28a.25.25,0,0,1,.25.25Zm0-3a.25.25,0,0,1-.25.25H2.21A.25.25,0,0,1,2,3.06V1.81a.25.25,0,0,1,.25-.25H14.79a.25.25,0,0,1,.25.25Z"/></svg>