<svg id="Layer_1" data-name="Layer 1" xmlns="http://www.w3.org/2000/svg" viewBox="0 0 17 17"><path d="M13.12.5H3.88a.5.5,0,0,0-.5.5V16a.5.5,0,0,0,.5.5h9.25a.5.5,0,0,0,.5-.5V1A.5.5,0,0,0,13.12.5Zm-.59,14.69a.25.25,0,0,1-.25.25H7.86a.25.25,0,0,1-.25-.25V13.94a.25.25,0,0,1,.25-.25h4.43a.25.25,0,0,1,.25.25Zm-6.29,0a.25.25,0,0,1-.25.25H4.71a.25.25,0,0,1-.25-.25V13.94a.25.25,0,0,1,.25-.25H6a.25.25,0,0,1,.25.25ZM4.46,1.81a.25.25,0,0,1,.25-.25h7.58a.25.25,0,0,1,.25.25V3.06a.25.25,0,0,1-.25.25H4.71a.25.25,0,0,1-.25-.25ZM6.25,12.16a.25.25,0,0,1-.25.25H4.71a.25.25,0,0,1-.25-.25V10.91a.25.25,0,0,1,.25-.25H6a.25.25,0,0,1,.25.25Zm0-3A.25.25,0,0,1,6,9.38H4.71a.25.25,0,0,1-.25-.25V7.88a.25.25,0,0,1,.25-.25H6a.25.25,0,0,1,.25.25Zm0-3A.25.25,0,0,1,6,6.34H4.71a.25.25,0,0,1-.25-.25V4.84a.25.25,0,0,1,.25-.25H6a.25.25,0,0,1,.25.25Zm3.15,0a.25.25,0,0,1-.25.25H7.86a.25.25,0,0,1-.25-.25V4.84a.25.25,0,0,1,.25-.25H9.14a.25.25,0,0,1,.25.25ZM7.61,7.88a.25.25,0,0,1,.25-.25H9.14a.25.25,0,0,1,.25.25V9.13a.25.25,0,0,1-.25.25H7.86a.25.25,0,0,1-.25-.25Zm0,3a.25.25,0,0,1,.25-.25H9.14a.25.25,0,0,1,.25.25v1.25a.25.25,0,0,1-.25.25H7.86a.25.25,0,0,1-.25-.25Zm4.93,1.25a.25.25,0,0,1-.25.25H11a.25.25,0,0,1-.25-.25V10.91a.25.25,0,0,1,.25-.25h1.28a.25.25,0,0,1,.25.25Zm0-3a.25.25,0,0,1-.25.25H11a.25.25,0,0,1-.25-.25V7.88A.25.25,0,0,1,11,7.63h1.28a.25.25,0,0,1,.25.25Zm0-3a.25.25,0,0,1-.25.25H11a.25.25,0,0,1-.25-.25V4.84A.25.25,0,0,1,11,4.59h1.28a.25.25,0,0,1,.25.25Z"/></svg>