<svg id="Layer_1" data-name="Layer 1" xmlns="http://www.w3.org/2000/svg" viewBox="0 0 17 17"><path d="M15.66,10.17a10.1,10.1,0,0,0-1.34,0l1.56-.43a5.4,5.4,0,0,0,0-1.6V7.25L14.5,7.4c0-.74,0-1.87,0-1.87l-2,0,1-.23,1.88-.43a10.59,10.59,0,0,0,0-2.52l-13,3L.54,5.78a9.25,9.25,0,0,0,0,1.85V8.3l3-.06L1,8.8a6.16,6.16,0,0,0,0,1.62v.9l1.43-.15c0,.64.07,2.25.07,2.25l4-1.1c-.56.23-.92.39-1,.42l-.76.35.7,1.52.76-.35c.06,0,5.75-2.61,9.31-2.42l.84,0,.09-1.67Zm-4,.73a2.2,2.2,0,0,1-.47.43,1.36,1.36,0,0,1-.77.26.75.75,0,0,1-.66-.3,1.33,1.33,0,0,1-.23-.71,6.35,6.35,0,0,1-.88.66,2.3,2.3,0,0,1-1.17.36,1.4,1.4,0,0,1-1-.41,1.37,1.37,0,0,1-.43-1,1.92,1.92,0,0,1,1-1.63,14.73,14.73,0,0,1,2.48-1.1V6.85a2.36,2.36,0,0,0-.13-1,1,1,0,0,0-1-.45,1.31,1.31,0,0,0-.65.18.56.56,0,0,0-.31.5,1.81,1.81,0,0,0,0,.27,1.94,1.94,0,0,1,0,.25.56.56,0,0,1-.25.53A.63.63,0,0,1,7,7.25a.57.57,0,0,1-.47-.2.68.68,0,0,1-.16-.44,1.4,1.4,0,0,1,.58-1,2.51,2.51,0,0,1,1.71-.52A1.84,1.84,0,0,1,10.42,6a2.93,2.93,0,0,1,.25,1.36V10a1.81,1.81,0,0,0,.05.54.35.35,0,0,0,.36.26.61.61,0,0,0,.26,0,2.61,2.61,0,0,0,.35-.23Z"/><path d="M7.3,9.69a1,1,0,0,0,.4.9,1,1,0,0,0,.59.19,1.61,1.61,0,0,0,.85-.25.73.73,0,0,0,.41-.63V7.76a6.19,6.19,0,0,0-1.28.57A1.67,1.67,0,0,0,7.3,9.69Z"/></svg>